<?xml version="1.0" encoding="utf-8"?>
<!-- Generator: Adobe Illustrator 21.0.0, SVG Export Plug-In . SVG Version: 6.00 Build 0)  -->
<svg version="1.1" id="Capa_1" xmlns="http://www.w3.org/2000/svg" xmlns:xlink="http://www.w3.org/1999/xlink" x="0px" y="0px"
	 viewBox="0 0 502 393" style="enable-background:new 0 0 502 393;" xml:space="preserve">
<style type="text/css">
	.st0{fill:#94323F;}
	.st1{fill:#FFFFFF;stroke:#94323F;stroke-width:10;stroke-miterlimit:10;}
</style>
<g>
	<path class="st0" d="M375.7,101.5l-111.3,25.9l-0.6,0.1l-92.5,46.9L54.7,194.8l70.7,181.6l109.9-18.8l96.1-53.9l115-21.7
		L375.7,101.5z M432.8,274.3L333,293.2l-60.7-157.3l97.3-22.6L432.8,274.3z M179.1,181.8l83.8-42.5l60.7,157.4l-87.1,48.9
		L179.1,181.8z M68.5,202.5l101.1-17.6l57.5,163.9l-95.2,16.3L68.5,202.5z"/>
	<g>
		<path class="st1" d="M253.8,17c2.9,0.5,5.8,0.8,8.7,1.5c7.1,1.6,13.5,4.8,19.2,9.3c6.2,4.9,11,11,14.5,18.2
			c4.2,8.9,5.2,18.2,4.4,27.9c-0.8,9.8-3,19.3-6.3,28.4c-2.2,6.2-4.7,12.3-7.6,18.2c-3.8,7.8-7.9,15.5-12.2,22.9
			c-5.5,9.6-11.8,18.7-18.5,27.5c-1.7,2.2-3.4,4.5-5.3,6.9c-2-2.6-4-5-5.7-7.5c-5.1-7.3-10.3-14.6-15.1-22.1
			c-6.1-9.5-11.5-19.5-16.2-29.8c-4.1-9-7.6-18.2-10-27.8c-2.2-8.7-3.5-17.5-3-26.5c0.4-8.2,2.9-15.8,7.1-22.9
			c2.9-4.8,6.4-9,10.7-12.5c7-5.8,14.9-9.5,23.9-10.9c1.7-0.3,3.5-0.5,5.2-0.8C249.6,17,251.7,17,253.8,17z M250.6,37.1
			c-16.5,0-30,13.5-30.1,30.1c0,16.6,13.4,30.1,30,30.2c16.7,0.1,30.2-13.4,30.2-30.1C280.8,50.6,267.3,37.1,250.6,37.1z"/>
	</g>
</g>
</svg>
