<?xml version="1.0" encoding="utf-8"?>
<!-- Generator: Adobe Illustrator 21.0.0, SVG Export Plug-In . SVG Version: 6.00 Build 0)  -->
<svg version="1.1" id="Capa_1" xmlns="http://www.w3.org/2000/svg" xmlns:xlink="http://www.w3.org/1999/xlink" x="0px" y="0px"
	 viewBox="0 0 502 393" style="enable-background:new 0 0 502 393;" xml:space="preserve">
<style type="text/css">
	.st0{fill:#94323F;}
</style>
<g>
	<path class="st0" d="M362.6,78.5H136.8c-67.3,0-122.1,52.2-122.1,116.4c0,64.2,54.8,116.4,122.1,116.4h225.8
		c67.3,0,122.1-52.2,122.1-116.4C484.6,130.7,429.9,78.5,362.6,78.5z M362.6,301.3H136.8c-61.8,0-112.1-47.7-112.1-106.4
		c0-58.7,50.3-106.4,112.1-106.4h225.8c61.8,0,112.1,47.7,112.1,106.4C474.6,253.6,424.4,301.3,362.6,301.3z"/>
	<path class="st0" d="M179.6,171.4h-28.5v-28.5c0-7.9-6.4-14.3-14.3-14.3h-18.5c-7.9,0-14.3,6.4-14.3,14.3v28.5H75.6
		c-7.9,0-14.3,6.4-14.3,14.3v18.5c0,7.9,6.4,14.3,14.3,14.3h28.5v28.5c0,7.9,6.4,14.3,14.3,14.3h18.5c7.9,0,14.3-6.4,14.3-14.3
		v-28.5h28.5c7.9,0,14.3-6.4,14.3-14.3v-18.5C193.9,177.8,187.5,171.4,179.6,171.4z M183.9,204.1c0,2.4-1.9,4.3-4.3,4.3h-38.5v38.5
		c0,2.4-1.9,4.3-4.3,4.3h-18.5c-2.4,0-4.3-1.9-4.3-4.3v-38.5H75.6c-2.4,0-4.3-1.9-4.3-4.3v-18.5c0-2.4,1.9-4.3,4.3-4.3h38.5v-38.5
		c0-2.4,1.9-4.3,4.3-4.3h18.5c2.4,0,4.3,1.9,4.3,4.3v38.5h38.5c2.4,0,4.3,1.9,4.3,4.3V204.1z"/>
	<path class="st0" d="M410.4,167.3c-6.5,0-12.6,2.3-17.3,6.1c3.8-4.7,6.1-10.7,6.1-17.3c0-15.2-12.4-27.5-27.5-27.5
		c-15.2,0-27.5,12.4-27.5,27.5c0,6.5,2.3,12.6,6.1,17.3c-4.7-3.8-10.7-6.1-17.3-6.1c-15.2,0-27.5,12.4-27.5,27.5
		s12.4,27.5,27.5,27.5c6.5,0,12.6-2.3,17.3-6.1c-3.8,4.7-6.1,10.7-6.1,17.3c0,15.2,12.4,27.5,27.5,27.5c15.2,0,27.5-12.4,27.5-27.5
		c0-6.5-2.3-12.6-6.1-17.3c4.7,3.8,10.7,6.1,17.3,6.1c15.2,0,27.5-12.4,27.5-27.5S425.6,167.3,410.4,167.3z M371.7,138.6
		c9.7,0,17.5,7.9,17.5,17.5s-7.9,17.5-17.5,17.5s-17.5-7.9-17.5-17.5S362,138.6,371.7,138.6z M389,177.6c-3.8,4.7-6.1,10.7-6.1,17.3
		s2.3,12.6,6.1,17.3c-4.7-3.8-10.7-6.1-17.3-6.1c-6.5,0-12.6,2.3-17.3,6.1c3.8-4.7,6.1-10.7,6.1-17.3s-2.3-12.6-6.1-17.3
		c4.7,3.8,10.7,6.1,17.3,6.1C378.3,183.7,384.3,181.4,389,177.6z M333,212.4c-9.7,0-17.5-7.9-17.5-17.5s7.9-17.5,17.5-17.5
		s17.5,7.9,17.5,17.5S342.7,212.4,333,212.4z M371.7,251.1c-9.7,0-17.5-7.9-17.5-17.5S362,216,371.7,216s17.5,7.9,17.5,17.5
		S381.4,251.1,371.7,251.1z M410.4,212.4c-9.7,0-17.5-7.9-17.5-17.5s7.9-17.5,17.5-17.5s17.5,7.9,17.5,17.5S420.1,212.4,410.4,212.4
		z"/>
</g>
</svg>
