<?xml version="1.0" encoding="utf-8"?>
<!-- Generator: Adobe Illustrator 21.0.0, SVG Export Plug-In . SVG Version: 6.00 Build 0)  -->
<svg version="1.1" id="Capa_1" xmlns="http://www.w3.org/2000/svg" xmlns:xlink="http://www.w3.org/1999/xlink" x="0px" y="0px"
	 viewBox="0 0 502 393" style="enable-background:new 0 0 502 393;" xml:space="preserve">
<style type="text/css">
	.st0{fill:#94323F;}
</style>
<g>
	<path class="st0" d="M432.8,113.7h-3.9h-0.4v-15c0-9.6-9.3-17.5-20.7-17.5H93.6c-11.4,0-20.7,7.8-20.7,17.5v15h-1.1h-3.2
		c-12.8,0-23.2,8.7-23.2,19.4v160c0,10.7,10.4,19.4,23.2,19.4h140.1h0h10.2l0.8-4c0.4-2,0.8-4,1.3-6c0.2-0.8,0.4-1.6,0.5-2.4
		c0.1-0.4,0.2-0.8,0.3-1.3c0.3-1.4,0.7-2.8,1-4.2c0-0.2,0.1-0.4,0.1-0.6c0.3-1.2,0.6-2.4,0.9-3.5c0.1-0.5,0.2-0.9,0.4-1.3
		c0.2-0.9,0.5-1.7,0.7-2.6c0.1-0.5,0.3-1,0.4-1.5c0.2-0.8,0.4-1.6,0.7-2.3c0.1-0.5,0.3-1,0.4-1.5c0.2-0.8,0.5-1.5,0.7-2.3
		c0.1-0.4,0.3-0.9,0.4-1.3c0.3-0.8,0.5-1.6,0.8-2.4c0.1-0.3,0.2-0.7,0.4-1c0.4-1.1,0.8-2.2,1.2-3.3c0.1-0.1,0.1-0.3,0.2-0.4
		c0.3-0.9,0.7-1.8,1-2.7c0.1-0.3,0.3-0.7,0.4-1c0.3-0.7,0.5-1.3,0.8-1.9c0.2-0.4,0.3-0.7,0.5-1.1c0.3-0.6,0.5-1.2,0.8-1.7
		c0.2-0.4,0.3-0.7,0.5-1.1c0.3-0.5,0.5-1.1,0.8-1.6c0.2-0.3,0.3-0.6,0.5-1c0.3-0.6,0.6-1.1,0.9-1.6c0.1-0.3,0.3-0.5,0.4-0.8
		c0.4-0.8,0.8-1.5,1.3-2.2c0.5-0.8,0.9-1.5,1.4-2.2c1.9-2.8,4.5-6,7.4-7.8h8.4c2.9,1.8,5.5,5,7.4,7.8l0,0c0.5,0.7,0.9,1.4,1.4,2.2
		c0.4,0.7,0.8,1.4,1.3,2.2c0.1,0.2,0.3,0.5,0.4,0.8c0.3,0.5,0.6,1.1,0.9,1.6c0.2,0.3,0.3,0.7,0.5,1c0.3,0.5,0.5,1,0.8,1.6
		c0.2,0.4,0.3,0.7,0.5,1.1c0.3,0.6,0.5,1.1,0.7,1.7c0.2,0.4,0.3,0.7,0.5,1.1c0.3,0.6,0.5,1.3,0.8,1.9c0.1,0.3,0.3,0.7,0.4,1
		c0.3,0.9,0.7,1.7,1,2.6c0.1,0.2,0.1,0.3,0.2,0.5c0.4,1.1,0.8,2.1,1.2,3.2c0.1,0.4,0.2,0.7,0.4,1.1c0.3,0.8,0.5,1.5,0.8,2.3
		c0.1,0.4,0.3,0.9,0.4,1.3c0.2,0.7,0.5,1.5,0.7,2.2c0.1,0.5,0.3,1,0.4,1.5c0.2,0.8,0.5,1.5,0.7,2.3c0.1,0.5,0.3,1,0.4,1.5
		c0.2,0.8,0.5,1.7,0.7,2.6c0.1,0.5,0.2,0.9,0.4,1.4c0.3,1.1,0.6,2.3,0.9,3.5c0,0.2,0.1,0.4,0.1,0.6c0.3,1.4,0.7,2.8,1,4.2
		c0.1,0.4,0.2,0.8,0.3,1.3c0.2,0.8,0.4,1.6,0.5,2.4c0.4,2,0.9,4,1.3,6l0.8,4h10.2h0h140.1c12.8,0,23.2-8.7,23.2-19.4v-160
		C456,122.4,445.6,113.7,432.8,113.7z M82.9,98.6c0-4,4.9-7.5,10.7-7.5h314.2c5.8,0,10.7,3.4,10.7,7.5v15h-1.2H90h-7.1V98.6z
		 M446,293.1c0,5.1-6,9.4-13.2,9.4H290.7h0c0-0.2-0.1-0.4-0.1-0.6c-0.1-0.5-0.2-0.9-0.3-1.4c-0.2-1-0.5-2.1-0.7-3.1
		c-0.1-0.5-0.2-1-0.3-1.5c-0.3-1.1-0.5-2.3-0.8-3.4c-0.1-0.3-0.1-0.6-0.2-0.9c-0.3-1.4-0.7-2.7-1-4.1c-0.1-0.4-0.2-0.7-0.3-1.1
		c-0.3-1-0.5-2-0.8-3c-0.1-0.4-0.2-0.8-0.4-1.3c-0.3-1-0.6-2-0.9-3c-0.1-0.3-0.2-0.6-0.3-0.9c-0.4-1.2-0.8-2.5-1.1-3.7
		c-0.1-0.3-0.2-0.5-0.3-0.8c-0.3-0.9-0.6-1.9-0.9-2.8c-0.1-0.4-0.2-0.7-0.4-1.1c-0.3-0.9-0.6-1.7-0.9-2.5c-0.1-0.3-0.2-0.6-0.3-0.9
		c-0.4-1.1-0.8-2.2-1.2-3.2c-0.1-0.2-0.1-0.3-0.2-0.5c-0.4-0.9-0.7-1.7-1.1-2.6c-0.1-0.3-0.3-0.6-0.4-0.9c-0.3-0.7-0.6-1.4-1-2.1
		c-0.1-0.3-0.2-0.5-0.4-0.8c-0.4-0.9-0.9-1.8-1.3-2.7l-4.5-7.8c0,0,0,0,0,0l-1.5-2.2H269c-0.1-0.2-0.3-0.3-0.4-0.5
		c-0.2-0.2-0.3-0.4-0.5-0.6c-0.2-0.3-0.4-0.5-0.7-0.8c-0.2-0.2-0.3-0.4-0.5-0.6c-0.2-0.3-0.5-0.5-0.7-0.8c-0.1-0.2-0.3-0.3-0.4-0.5
		c-0.3-0.3-0.6-0.6-0.9-0.9c-0.1-0.1-0.2-0.2-0.3-0.3c-0.4-0.4-0.8-0.7-1.2-1.1c-0.1-0.1-0.2-0.2-0.4-0.3c-0.3-0.2-0.5-0.5-0.8-0.7
		c-0.2-0.1-0.3-0.2-0.5-0.3c-0.2-0.2-0.5-0.4-0.7-0.5c-0.2-0.1-0.3-0.2-0.5-0.3c-0.2-0.2-0.5-0.3-0.7-0.4c-0.2-0.1-0.3-0.2-0.5-0.3
		c-0.2-0.1-0.5-0.3-0.7-0.4c-0.2-0.1-0.4-0.2-0.5-0.3c-0.2-0.1-0.5-0.2-0.7-0.3c-0.2-0.1-0.4-0.2-0.5-0.2c-0.2-0.1-0.5-0.2-0.7-0.3
		c-0.2-0.1-0.4-0.1-0.5-0.2c-0.2-0.1-0.5-0.1-0.7-0.2c-0.2,0-0.4-0.1-0.5-0.1c-0.3-0.1-0.5-0.1-0.8-0.2c-0.2,0-0.3-0.1-0.5-0.1
		c-0.3,0-0.6-0.1-0.9-0.1c-0.1,0-0.3,0-0.4,0c-0.4,0-0.9-0.1-1.3-0.1s-0.9,0-1.3,0.1c-0.1,0-0.3,0-0.4,0c-0.3,0-0.6,0.1-0.9,0.1
		c-0.2,0-0.3,0.1-0.5,0.1c-0.3,0-0.5,0.1-0.8,0.2c-0.2,0-0.4,0.1-0.5,0.1c-0.2,0.1-0.5,0.1-0.7,0.2c-0.2,0.1-0.4,0.1-0.5,0.2
		c-0.2,0.1-0.5,0.2-0.7,0.3c-0.2,0.1-0.4,0.1-0.5,0.2c-0.2,0.1-0.5,0.2-0.7,0.3c-0.2,0.1-0.4,0.2-0.5,0.3c-0.2,0.1-0.5,0.2-0.7,0.4
		c-0.2,0.1-0.4,0.2-0.5,0.3c-0.2,0.1-0.5,0.3-0.7,0.4c-0.2,0.1-0.3,0.2-0.5,0.3c-0.2,0.2-0.5,0.3-0.7,0.5c-0.2,0.1-0.3,0.2-0.5,0.3
		c-0.3,0.2-0.5,0.4-0.8,0.7c-0.1,0.1-0.2,0.2-0.4,0.3c-0.4,0.3-0.8,0.7-1.2,1.1c-0.1,0.1-0.2,0.2-0.2,0.2c-0.3,0.3-0.6,0.6-0.9,0.9
		c-0.1,0.1-0.3,0.3-0.4,0.5c-0.2,0.3-0.5,0.5-0.7,0.8c-0.2,0.2-0.3,0.4-0.5,0.5c-0.2,0.3-0.5,0.5-0.7,0.8c-0.2,0.2-0.3,0.4-0.5,0.6
		c-0.1,0.2-0.3,0.4-0.4,0.5h-0.1l-1.5,2.2l-4.5,7.8c-0.4,0.9-0.9,1.7-1.3,2.7c-0.1,0.3-0.3,0.5-0.4,0.8c-0.3,0.7-0.6,1.4-0.9,2.1
		c-0.1,0.3-0.3,0.6-0.4,0.9c-0.4,0.8-0.7,1.7-1.1,2.6c-0.1,0.2-0.1,0.3-0.2,0.5c-0.4,1-0.8,2.1-1.2,3.2c-0.1,0.3-0.2,0.6-0.3,0.9
		c-0.3,0.8-0.6,1.7-0.9,2.5c-0.1,0.4-0.3,0.7-0.4,1.1c-0.3,0.9-0.6,1.8-0.9,2.8c-0.1,0.3-0.2,0.5-0.3,0.8c-0.4,1.2-0.8,2.4-1.1,3.7
		c-0.1,0.3-0.2,0.6-0.3,0.9c-0.3,1-0.6,1.9-0.9,2.9c-0.1,0.4-0.2,0.8-0.4,1.3c-0.3,1-0.5,2-0.8,3c-0.1,0.4-0.2,0.7-0.3,1.1
		c-0.4,1.3-0.7,2.7-1,4.1c-0.1,0.3-0.1,0.6-0.2,0.9c-0.3,1.1-0.5,2.3-0.8,3.4c-0.1,0.5-0.2,1-0.3,1.5c-0.2,1-0.5,2.1-0.7,3.1
		c-0.1,0.5-0.2,0.9-0.3,1.4c0,0.2-0.1,0.4-0.1,0.6h0H68.6c-7.2,0-13.2-4.3-13.2-9.4v-160c0-5.1,6-9.4,13.2-9.4h3.2h1.1h10H90h327.2
		h1.2h10h0.4h3.9c7.2,0,13.2,4.3,13.2,9.4V293.1z"/>
	<path class="st0" d="M155.8,160.4c-28.9,0-52.3,23.5-52.3,52.3S127,265,155.8,265s52.3-23.5,52.3-52.3S184.7,160.4,155.8,160.4z
		 M155.8,255c-23.3,0-42.3-19-42.3-42.3s19-42.3,42.3-42.3s42.3,19,42.3,42.3S179.2,255,155.8,255z"/>
	<path class="st0" d="M345.5,160.8c-28.9,0-52.3,23.5-52.3,52.3s23.5,52.3,52.3,52.3s52.3-23.5,52.3-52.3S374.3,160.8,345.5,160.8z
		 M345.5,255.5c-23.3,0-42.3-19-42.3-42.3s19-42.3,42.3-42.3s42.3,19,42.3,42.3S368.8,255.5,345.5,255.5z"/>
</g>
</svg>
