<?xml version="1.0" encoding="utf-8"?>
<!-- Generator: Adobe Illustrator 16.0.0, SVG Export Plug-In . SVG Version: 6.00 Build 0)  -->
<!DOCTYPE svg PUBLIC "-//W3C//DTD SVG 1.1//EN" "http://www.w3.org/Graphics/SVG/1.1/DTD/svg11.dtd">
<svg version="1.1" id="Capa_1" xmlns="http://www.w3.org/2000/svg" xmlns:xlink="http://www.w3.org/1999/xlink" x="0px" y="0px"
	 width="250.377px" height="240.977px" viewBox="0 0 250.377 240.977" enable-background="new 0 0 250.377 240.977"
	 xml:space="preserve">
<g>
	<g>
		<g>
			<path fill="#94323E" d="M123.53,130.761c-14.492,0-26.279,11.792-26.279,26.282s11.787,26.282,26.279,26.282
				c14.495,0,26.283-11.792,26.283-26.282S138.025,130.761,123.53,130.761z M123.53,172.815c-8.696,0-15.77-7.076-15.77-15.772
				s7.073-15.77,15.77-15.77c8.697,0,15.771,7.073,15.771,15.77S132.227,172.815,123.53,172.815z"/>
		</g>
	</g>
	<g>
		<g>
			<path fill="#94323E" d="M123.53,52.568c14.495,0,26.283-11.792,26.283-26.284C149.813,11.792,138.025,0,123.53,0
				C109.038,0,97.25,11.792,97.25,26.284C97.25,40.776,109.038,52.568,123.53,52.568z M123.53,10.518
				c8.697,0,15.771,7.07,15.771,15.766s-7.073,15.771-15.771,15.771c-8.696,0-15.77-7.071-15.77-15.771
				C107.76,17.588,114.833,10.518,123.53,10.518z"/>
		</g>
	</g>
	<g>
		<g>
			<path fill="#94323E" d="M82.135,110.215h10.513h10.513H143.9h10.513h11.827c2.902,0,5.249-2.353,5.249-5.25
				c0-2.907-2.351-5.26-5.249-5.26h-11.827v-7.057c0-17.029-13.857-30.881-30.887-30.881c-17.025,0-30.881,13.856-30.881,30.881
				v7.057H82.131c-2.904,0-5.256,2.353-5.256,5.26C76.878,107.862,79.235,110.215,82.135,110.215z M103.167,92.648
				c0-11.231,9.133-20.367,20.366-20.367c11.231,0,20.374,9.139,20.374,20.367v7.057h-40.737L103.167,92.648L103.167,92.648z"/>
		</g>
	</g>
	<g>
		<g>
			<path fill="#94323E" d="M202.413,136.674c14.494,0,26.282-11.792,26.282-26.284c0-14.489-11.788-26.282-26.282-26.282
				c-14.497,0-26.278,11.793-26.278,26.282C176.134,124.882,187.916,136.674,202.413,136.674z M202.413,94.625
				c8.696,0,15.77,7.073,15.77,15.766c0,8.696-7.069,15.775-15.77,15.775c-8.696,0-15.772-7.075-15.772-15.775
				C186.64,101.694,193.716,94.625,202.413,94.625z"/>
		</g>
	</g>
	<g>
		<g>
			<path fill="#94323E" d="M46.656,136.674c14.492,0,26.278-11.792,26.278-26.284c0-14.489-11.786-26.282-26.278-26.282
				c-14.494,0-26.284,11.793-26.284,26.282C20.372,124.882,32.162,136.674,46.656,136.674z M46.656,94.625
				c8.696,0,15.77,7.073,15.77,15.766c0,8.696-7.073,15.775-15.77,15.775s-15.771-7.075-15.771-15.775
				C30.885,101.694,37.959,94.625,46.656,94.625z"/>
		</g>
	</g>
	<g>
		<g>
			<path fill="#94323E" d="M166.24,230.464h-11.827v-7.055c0-17.028-13.854-30.886-30.883-30.886
				c-17.025,0-30.882,13.858-30.882,30.886v7.055H82.135c-2.104,0-3.9,1.244-4.745,3.029c-0.321,0.674-0.515,1.423-0.515,2.228
				c0,0.274,0.038,0.53,0.078,0.794c0.389,2.526,2.548,4.462,5.178,4.462h10.514h10.512h40.736h10.513h11.827
				c2.905,0,5.256-2.354,5.256-5.256C171.497,232.814,169.145,230.464,166.24,230.464z M103.167,230.464v-7.055
				c0-11.237,9.133-20.373,20.366-20.373c11.231,0,20.374,9.136,20.374,20.373v7.055H103.167z"/>
		</g>
	</g>
	<g>
		<g>
			<path fill="#94323E" d="M245.122,183.816h-11.827v-7.062c0-17.024-13.851-30.878-30.882-30.878
				c-17.027,0-30.881,13.854-30.881,30.878v7.062h-10.514c-2.902,0-5.249,2.351-5.249,5.25c0,2.902,2.354,5.256,5.249,5.256h10.514
				h10.516h40.734h10.513h11.827c2.905,0,5.256-2.354,5.256-5.256C250.377,186.167,248.024,183.816,245.122,183.816z
				 M182.043,183.816v-7.062c0-11.23,9.136-20.373,20.365-20.373c11.237,0,20.373,9.143,20.373,20.373v7.062H182.043z"/>
		</g>
	</g>
	<g>
		<g>
			<path fill="#94323E" d="M89.363,194.322c2.903,0,5.258-2.351,5.258-5.249c0-2.902-2.357-5.257-5.258-5.257H77.534v-7.055
				c0-17.027-13.853-30.885-30.881-30.885c-17.031,0-30.882,13.858-30.882,30.885v7.055H5.253c-2.904,0-5.253,2.354-5.253,5.257
				c0,2.898,2.354,5.249,5.253,5.249h10.518H26.28h40.736h10.515H89.363z M26.284,183.816v-7.062
				c0-11.23,9.136-20.373,20.372-20.373c11.231,0,20.367,9.143,20.367,20.373v7.062H26.284z"/>
		</g>
	</g>
</g>
</svg>
