<?xml version="1.0" encoding="utf-8"?>
<!-- Generator: Adobe Illustrator 16.0.0, SVG Export Plug-In . SVG Version: 6.00 Build 0)  -->
<!DOCTYPE svg PUBLIC "-//W3C//DTD SVG 1.1//EN" "http://www.w3.org/Graphics/SVG/1.1/DTD/svg11.dtd">
<svg version="1.1" id="Capa_1" xmlns="http://www.w3.org/2000/svg" xmlns:xlink="http://www.w3.org/1999/xlink" x="0px" y="0px"
	 width="161.399px" height="196.65px" viewBox="0 0 161.399 196.65" enable-background="new 0 0 161.399 196.65"
	 xml:space="preserve">
<g>
	<g>
		<g>
			<path fill="#94323E" d="M160.114,2.182C158.946,0.73,157.254,0,155.069,0c-10.474,0.014-20.956,0.037-31.435,0.037l-17.986-0.016
				l-2.277,0.139l-1.521,1.514c-0.377,0.357-0.736,0.705-1.068,1.117L80.666,28.055L61.333,3.771l-0.242-0.326
				c-0.488-0.668-1.242-1.67-2.463-2.506l-1.322-0.926H6.613C2.345,0.014,0,2.361,0,6.637L0.13,8.594l8.934,11.244
				C20.958,34.779,32.853,49.725,44.74,64.676c-1.854,0.051-3.703,0.982-5.162,2.842c-3.113,3.98-3.256,8.426-3.084,11.43
				c0.35,6.277,4.432,11.496,9.965,13.467c-18.275,13.438-27.49,36.932-21.746,60.297c5.664,23.018,24.615,40.057,48.279,43.396
				c0.408,0.072,0.828,0.094,1.248,0.121c0.125,0.014,0.242,0.014,0.369,0.025l0.779,0.373l7.613,0.023l4.117-0.072l0.193-0.328
				c1.404-0.168,2.822-0.383,4.256-0.662c29.293-5.627,49.676-33.252,46.402-62.887c-1.398-12.729-6.543-23.91-15.271-33.268
				c-2.426-2.6-5.031-4.922-7.813-6.982c4.107-1.443,7.541-4.732,9.041-8.959c1.373-3.9,1.381-7.943,0.004-12.043
				c-0.518-1.557-1.35-2.984-2.557-4.393c-1.307-1.523-3.082-2.279-4.85-2.297l44.821-56.313V6.703
				C161.608,4.568,160.846,3.076,160.114,2.182z M108.197,76.729H53.142c0,0,0,0-0.006,0c0.404-0.986,0.518-1.99,0.465-2.965
				c0.664,0.209,1.391,0.346,2.232,0.346h0.008c10.197-0.004,20.398-0.012,30.59-0.012l17.826,0.008c0.373,0,0.746-0.033,1.1-0.086
				c0.861-0.135,1.648-0.479,2.361-0.928C107.476,74.432,107.712,75.699,108.197,76.729z M14.804,10.4h38.549l42.445,53.318h-9.359
				c-9.729,0-19.471,0-29.197,0.014c-13.35-16.799-26.703-33.566-40.061-50.354L14.804,10.4z M115.103,106.512
				c7.18,7.678,11.393,16.877,12.547,27.324c2.678,24.295-14.035,46.941-38.055,51.57c-1.703,0.324-3.381,0.551-4.994,0.662H84.39
				c-0.484,0-0.961,0.07-1.422,0.188l-5.541-0.006c-0.977-0.279-1.848-0.332-2.482-0.371c-0.162-0.01-0.328-0.023-0.502-0.049
				c-19.752-2.783-34.943-16.434-39.66-35.604c-6.049-24.607,8.139-49.408,32.371-56.674c2.93-0.387,4.576-2.617,4.914-4.74
				l0.264-1.703h17.084v0.031c-0.285,1.637,0.145,3.285,1.18,4.514c0.533,0.631,1.637,1.627,3.531,1.873
				C102.306,95.998,109.351,100.367,115.103,106.512z M109.314,57.146L90.042,32.947L108.005,10.4h15.623
				c7.633,0,15.27,0,22.896-0.004L109.314,57.146z"/>
		</g>
	</g>
	<g>
		<g>
			<path fill="#94323E" d="M80.66,93.518c-24.527,0-44.475,19.949-44.475,44.477c0,24.52,19.947,44.475,44.475,44.475
				c24.521,0,44.475-19.949,44.475-44.475C125.134,113.467,105.187,93.518,80.66,93.518z M80.66,172.096
				c-18.799,0-34.094-15.305-34.094-34.107c0-18.807,15.295-34.096,34.094-34.096c18.803,0,34.096,15.289,34.096,34.096
				C114.755,156.791,99.462,172.096,80.66,172.096z"/>
		</g>
	</g>
	<g>
		<g>
			<polygon fill="#94323E" points="71.708,132.609 71.708,129.52 58.207,136.654 58.207,138.465 71.818,146.432 71.818,143.104 
				61.996,137.584 			"/>
		</g>
	</g>
	<g>
		<g>
			<polygon fill="#94323E" points="74.382,147.807 77.134,149.102 86.759,128.279 84.041,126.877 			"/>
		</g>
	</g>
	<g>
		<g>
			<polygon fill="#94323E" points="89.533,132.609 99.281,137.584 89.5,143.104 89.5,146.432 103.109,138.465 103.109,136.654 
				89.533,129.52 			"/>
		</g>
	</g>
</g>
</svg>
