<?xml version="1.0" encoding="utf-8"?>
<!-- Generator: Adobe Illustrator 16.0.0, SVG Export Plug-In . SVG Version: 6.00 Build 0)  -->
<!DOCTYPE svg PUBLIC "-//W3C//DTD SVG 1.1//EN" "http://www.w3.org/Graphics/SVG/1.1/DTD/svg11.dtd">
<svg version="1.1" id="Capa_1" xmlns="http://www.w3.org/2000/svg" xmlns:xlink="http://www.w3.org/1999/xlink" x="0px" y="0px"
	 width="250.377px" height="240.977px" viewBox="0 0 250.377 240.977" enable-background="new 0 0 250.377 240.977"
	 xml:space="preserve">
<g>
	<g>
		<g>
			<g>
				<path fill="#94323E" d="M166.769,27.492H32.982c-9.09,0-16.492,7.398-16.492,16.492v130.102c0,9.092,7.4,16.49,16.492,16.49
					h111.813l-14.188-10.383H32.982c-3.369,0-6.111-2.74-6.111-6.105V43.984c0-3.363,2.742-6.107,6.111-6.107h133.787
					c3.363,0,6.109,2.744,6.109,6.107v86.754l10.379,7.596v-94.35C183.261,34.891,175.865,27.492,166.769,27.492z"/>
			</g>
		</g>
		<g>
			<g>
				<path fill="#94323E" d="M146.23,54.76H56.363c-8.748,0-15.861,7.123-15.861,15.869c0,8.748,7.113,15.863,15.861,15.863h89.867
					c8.746,0,15.867-7.115,15.867-15.863C162.095,61.883,154.972,54.76,146.23,54.76z M146.23,76.117H56.363
					c-3.023,0-5.486-2.455-5.486-5.488c0-3.025,2.463-5.482,5.486-5.482h89.867c3.023,0,5.488,2.457,5.488,5.482
					C151.716,73.654,149.251,76.117,146.23,76.117z"/>
			</g>
		</g>
		<g>
			<g>
				<path fill="#94323E" d="M146.23,93.365H56.363c-8.748,0-15.861,7.113-15.861,15.863c0,8.744,7.113,15.865,15.861,15.865h30.428
					l-0.609-6.678c-0.113-1.264,0.016-2.498,0.256-3.705H56.363c-3.023,0-5.486-2.451-5.486-5.48c0-3.027,2.463-5.484,5.486-5.484
					h42.254L120.236,99c1.016-0.229,2.094-0.34,3.201-0.34c3.512,0,7.178,1.152,9.803,3.076l2.756,2.01h10.234
					c3.023,0,5.488,2.457,5.488,5.484c0,1.797-0.889,3.389-2.225,4.393l8.504,6.213c2.541-2.809,4.104-6.527,4.104-10.605
					C162.095,100.484,154.972,93.365,146.23,93.365z"/>
			</g>
		</g>
		<g>
			<g>
				<path fill="#94323E" d="M56.363,142.34h32.01l-0.951-10.385H56.363c-8.748,0-15.867,7.121-15.867,15.875
					c0,8.738,7.119,15.861,15.867,15.861h51.693l-13.129-9.604c-0.32-0.24-0.629-0.512-0.939-0.777H56.363
					c-3.027,0-5.486-2.459-5.486-5.48C50.871,144.801,53.339,142.34,56.363,142.34z"/>
			</g>
		</g>
	</g>
	<g>
		<g>
			<path fill="#94323E" d="M233.792,184.553c-0.322-2.061-1.422-3.861-3.096-5.086l-47.436-34.711l-10.381-7.592l-19.109-13.986
				l-11.58-8.471l-12.016-8.791c-1.777-1.301-4.352-2.072-6.738-2.072c-0.717,0-1.416,0.072-2.068,0.219l-23.658,5.193
				c-2.842,0.623-5.072,2.791-5.953,5.455c-0.348,1.029-0.514,2.115-0.406,3.232l0.656,7.15l0.633,6.871l0.922,10.111
				c0.01,0.09,0.047,0.182,0.061,0.268c0.354,2.83,2.111,5.9,4.375,7.557l4.666,3.418l14.189,10.379l22.553,16.504l14.195,10.375
				l44.932,32.873c1.34,0.982,2.928,1.502,4.59,1.502c2.482,0,4.834-1.199,6.289-3.189l22.992-31.414
				C233.613,188.664,234.113,186.611,233.792,184.553z M202.558,213.533l-32.018-23.41l-13.563-9.93l-22.561-16.498l-14.189-10.381
				l-14.996-10.971l-0.996-0.725c-0.123-0.129-0.32-0.471-0.34-0.496l-0.844-9.168l-0.631-6.861l-0.555-6.121l19.357-4.266
				l2.23-0.484c0.227,0,0.533,0.076,0.58,0.076c0,0,0.004,0,0.004-0.004l0.57,0.412l14.189,10.387l9.617,7.037l12.102,8.846
				l12.361,9.045l10.379,7.592l39.217,28.684L202.558,213.533z"/>
		</g>
	</g>
</g>
</svg>
