<?xml version="1.0" encoding="UTF-8"?>
<svg width="18px" height="18px" viewBox="0 0 18 18" version="1.1" xmlns="http://www.w3.org/2000/svg" xmlns:xlink="http://www.w3.org/1999/xlink">
    <!-- Generator: Sketch 43.1 (39012) - http://www.bohemiancoding.com/sketch -->
    <title>x--thick--dark</title>
    <desc>Created with Sketch.</desc>
    <defs></defs>
    <g id="Page-1" stroke="none" stroke-width="1" fill="none" fill-rule="evenodd">
        <g id="x--thick--dark" transform="translate(1.000000, 1.000000)" stroke="#94323E" stroke-width="0.5" fill="#94323E">
            <path d="M0.21879545,0.00151717 C0.12450681,0.01069777 0.04421817,0.0740145 0.01328569,0.16357983 C-0.017646793,0.25315156 0.00645241,0.35254411 0.07497209,0.41798634 L7.65219068,8.00525798 L0.07497209,15.5849559 C0.01351673,15.6470627 -0.009982153,15.7373322 0.01338809,15.821539 C0.03675897,15.9057394 0.10341881,15.9709703 0.18808505,15.9924878 C0.27275129,16.0140116 0.36245625,15.9885313 0.42317561,15.9257011 L8.00039484,8.34600316 L15.5776134,15.9257011 C15.6718496,16.0209387 15.8252774,16.0221679 15.9210323,15.9284668 C16.0167878,15.8347593 16.0189254,15.6812947 15.9258176,15.5849559 L8.34859836,8.00525798 L15.9258176,0.41798634 C15.9987603,0.34768492 16.0202829,0.23941266 15.9797734,0.14655026 C15.9392634,0.05368145 15.8452742,-0.004167897 15.7441459,0.00151717 C15.6808755,0.00401398 15.6210982,0.03119728 15.5776134,0.07723476 L8.00039484,7.65693913 L0.42317561,0.07723476 C0.37088697,0.02103716 0.29506681,-0.007055242 0.21879545,0.00151717 Z" id="Shape"></path>
        </g>
    </g>
</svg>