<?xml version="1.0" encoding="utf-8"?>
<!-- Generator: Adobe Illustrator 16.0.0, SVG Export Plug-In . SVG Version: 6.00 Build 0)  -->
<!DOCTYPE svg PUBLIC "-//W3C//DTD SVG 1.1//EN" "http://www.w3.org/Graphics/SVG/1.1/DTD/svg11.dtd">
<svg version="1.1" id="Capa_1" xmlns="http://www.w3.org/2000/svg" xmlns:xlink="http://www.w3.org/1999/xlink" x="0px" y="0px"
	 width="250.377px" height="256.655px" viewBox="0 0 250.377 256.655" enable-background="new 0 0 250.377 256.655"
	 xml:space="preserve">
<g>
	<g>
		<g>
			<g>
				<g>
					<path fill="#94323E" d="M170.751,256.654H49.675c-20.035,0-36.328-13.291-36.328-29.633v-104.74
						c0-16.332,16.293-29.629,36.328-29.629h121.076c20.027,0,36.324,13.297,36.324,29.629v104.74
						C207.076,243.363,190.769,256.654,170.751,256.654z M49.675,103.025c-14.307,0-25.953,8.639-25.953,19.256v104.736
						c0,10.623,11.646,19.262,25.953,19.262h121.076c14.303,0,25.943-8.639,25.943-19.262V122.281
						c0-10.617-11.641-19.256-25.943-19.256H49.675z"/>
				</g>
			</g>
		</g>
	</g>
	<g>
		<path fill="#94323E" d="M230.691,132.514c-3.363,0-6.852,1.275-10.352,3.805l-22.234,16.029c0.68,4.436,0.543,8.678,0.148,13.033
			l28.318-20.414c2.244-1.623,3.629-1.795,4.119-1.795c1.824,0,1.848,4.639,1.848,4.834v53.289c0,2.779-0.676,3.996-0.959,4.393
			c-0.256,0.357-0.449,0.451-0.889,0.451c-0.49,0-1.873-0.18-4.119-1.795l-29.23-21.08c2.559,4.258,2.746,9.381,1.283,14.07
			l21.715,15.652c3.5,2.527,6.98,3.805,10.352,3.805c3.859,0,7.232-1.713,9.5-4.828c1.99-2.736,3.002-6.33,3.002-10.672v-53.285
			C243.195,137.303,236.916,132.514,230.691,132.514z"/>
	</g>
	<path fill="none" stroke="#94323E" stroke-width="2" stroke-miterlimit="10" d="M52.619,55.564c4.277,0,7.75,3.471,7.75,7.746
		c0,4.283-3.473,7.75-7.75,7.75c-4.279,0-7.748-3.467-7.748-7.75C44.871,59.035,48.339,55.564,52.619,55.564z"/>
	<line fill="none" stroke="#94323E" stroke-width="2" stroke-miterlimit="10" x1="52.619" y1="71.061" x2="52.619" y2="98.41"/>
	<g>
		<path fill="#94323E" d="M97.988,19.113c-0.271-1.514-1.17-2.596-2.355-3.516C88.263,9.854,80.169,5.496,71.22,2.789
			C66.134,1.236,60.929,0.33,55.623,0.074C55.529,0.068,55.4,0.131,55.343,0c-0.422,0-0.848,0-1.271,0c-0.996,0-2.004,0-2.998,0
			c-0.518,0-1.029,0-1.545,0c-0.08,0.164-0.238,0.082-0.359,0.086c-9.898,0.531-19.243,3.061-28.01,7.689
			c-4.244,2.227-8.181,4.92-11.865,7.986C8.31,16.59,7.59,17.559,7.3,18.814c-0.015,0.076-0.015,0.154-0.115,0.17
			c0,0.574,0,1.15,0,1.727c0.152,0.145,0.121,0.365,0.18,0.539c0.584,1.877,1.805,3.131,3.705,3.635
			c1.77,0.471,3.331-0.014,4.727-1.17c9.498-7.924,20.412-12.396,32.752-13.338c4.816-0.365,9.619-0.088,14.379,0.773
			c7.377,1.359,14.209,4.057,20.525,8.088c2.199,1.4,4.268,2.977,6.273,4.637c2.922,2.404,7.193,1.01,8.178-2.631
			c0.029-0.125-0.008-0.285,0.152-0.357c0-0.572,0-1.15,0-1.73C98.035,19.148,97.99,19.139,97.988,19.113z"/>
		<path fill="#94323E" d="M84.542,27.467c-9.338-7.389-19.984-11.047-31.867-11.15c-1.959-0.021-3.908,0.098-5.85,0.324
			c-6.496,0.746-12.639,2.648-18.402,5.754c-2.719,1.467-5.298,3.166-7.698,5.102c-1.589,1.287-2.241,2.977-1.854,4.963
			c0.77,3.883,5.182,5.439,8.318,2.994c9.014-7.021,19.207-9.91,30.559-8.568c7.602,0.896,14.375,3.832,20.375,8.576
			c2.303,1.83,5.441,1.506,7.279-0.771C87.205,32.471,86.845,29.287,84.542,27.467z"/>
		<path fill="#94323E" d="M72.662,38.984c-6.002-4.203-12.678-6.285-20.098-6.342c-0.873,0.035-1.842,0.051-2.809,0.127
			c-6.24,0.535-11.924,2.6-17.055,6.18c-2.396,1.672-2.973,4.795-1.344,7.123c1.652,2.367,4.785,2.918,7.182,1.268
			c1.07-0.744,2.184-1.418,3.355-1.98c4.889-2.344,9.996-3.035,15.33-2.053c3.475,0.646,6.641,2.008,9.535,4.025
			c1.199,0.832,2.533,1.166,3.961,0.85c2.172-0.477,3.58-1.834,4.027-4.006C75.193,42.037,74.455,40.246,72.662,38.984z"/>
	</g>
</g>
</svg>
