<?xml version="1.0" encoding="utf-8"?>
<!-- Generator: Adobe Illustrator 16.0.0, SVG Export Plug-In . SVG Version: 6.00 Build 0)  -->
<!DOCTYPE svg PUBLIC "-//W3C//DTD SVG 1.1//EN" "http://www.w3.org/Graphics/SVG/1.1/DTD/svg11.dtd">
<svg version="1.1" id="Capa_1" xmlns="http://www.w3.org/2000/svg" xmlns:xlink="http://www.w3.org/1999/xlink" x="0px" y="0px"
	 width="250.377px" height="240.977px" viewBox="0 0 250.377 240.977" enable-background="new 0 0 250.377 240.977"
	 xml:space="preserve">
<g>
	<g>
		<g>
			<g>
				<path fill="#94323E" d="M209.688,90.284c-0.18-4.457-3.52-7.951-7.604-7.951l-2.102,0.08c-1.061-2.264-2.35-4.402-3.859-6.406
					l0.9-1.539c0.973-1.639,1.244-3.604,0.752-5.504c-0.549-2.137-2.02-4.035-4.039-5.232l-9.617-5.66
					c-1.387-0.82-2.951-1.25-4.506-1.25c-2.74,0-5.164,1.332-6.479,3.568l-0.908,1.537c-1.678-0.248-3.336-0.367-4.994-0.367
					c-1.66,0-3.322,0.119-5.006,0.367l-0.91-1.543c-1.316-2.23-3.736-3.563-6.479-3.563c-1.553,0-3.109,0.434-4.502,1.25
					l-9.623,5.66c-0.916,0.543-1.703,1.25-2.367,2.045c-0.781,0.947-1.365,2.021-1.664,3.182c-0.494,1.906-0.229,3.865,0.744,5.504
					l0.914,1.551c-0.225,0.299-0.43,0.609-0.641,0.908c-1.842,2.609-3.348,5.441-4.438,8.434l-1.801,0.08
					c-4.229,0.189-7.395,3.965-7.199,8.609l0.457,10.215l0.043,0.93c0.193,4.465,3.539,7.959,7.611,7.959l2.096-0.086
					c1.063,2.26,2.352,4.4,3.857,6.4l-0.906,1.561c-2.115,3.6-0.633,8.412,3.301,10.721l4.518,2.666l5.098,3.004
					c1.396,0.814,2.949,1.248,4.508,1.248c0.496,0,0.967-0.096,1.443-0.18c2.123-0.383,3.959-1.563,5.033-3.389l0.908-1.539
					c1.676,0.244,3.338,0.367,5.004,0.367c0.795,0,1.604-0.031,2.402-0.082c0.861-0.07,1.727-0.156,2.592-0.285l0.908,1.539
					c1.32,2.24,3.742,3.568,6.484,3.568c1.551,0,3.107-0.43,4.506-1.248l9.615-5.67c3.996-2.354,5.449-7.059,3.299-10.721
					l-0.92-1.561c2.141-2.846,3.857-6,5.076-9.342l1.797-0.08c2.254-0.1,4.316-1.26,5.664-3.184
					c1.076-1.533,1.613-3.467,1.535-5.428L209.688,90.284z M193.188,100.085l-0.924,3.779c-1.045,4.301-3.215,8.279-6.254,11.518
					l-2.674,2.838l3.33,5.645l-6.01,3.535l-3.326-5.641l-3.768,0.955c-0.521,0.133-1.029,0.205-1.545,0.291
					c-1.613,0.318-3.203,0.531-4.785,0.531c-1.877,0-3.76-0.258-5.676-0.701c-0.223-0.057-0.432-0.063-0.658-0.125l-3.777-0.957
					l-3.318,5.639l-6.006-3.529l3.316-5.648l-2.662-2.832c-2.547-2.715-4.439-5.85-5.621-9.34l-1.258-3.691l-6.531,0.293
					l-0.303-6.965l6.537-0.295l0.922-3.781c0.789-3.211,2.193-6.244,4.123-8.92c0.656-0.912,1.357-1.779,2.141-2.6l2.664-2.83
					l-3.328-5.637l0.631-0.377l5.379-3.166l3.314,5.633l3.779-0.947c2.154-0.545,4.244-0.818,6.332-0.818
					c2.09,0,4.178,0.273,6.33,0.818l3.771,0.955l3.33-5.641l6.006,3.543l-3.326,5.633l2.666,2.832
					c2.549,2.711,4.443,5.855,5.625,9.346l1.25,3.684l6.539-0.287l0.301,6.959L193.188,100.085z M167.241,82.093
					c-8.633,0-15.662,7.016-15.662,15.652c0,8.631,7.029,15.65,15.662,15.65c8.625,0,15.652-7.02,15.652-15.65
					C182.893,89.108,175.866,82.093,167.241,82.093z M167.241,103.017c-2.91,0-5.277-2.371-5.277-5.271
					c0-2.914,2.369-5.273,5.277-5.273c2.898,0,5.266,2.365,5.266,5.273C172.506,100.646,170.139,103.017,167.241,103.017z"/>
			</g>
		</g>
		<g>
			<g>
				<path fill="#94323E" d="M157.165,141.354c-1.797,0-3.371,0.936-4.295,2.348c-0.012-0.01-0.029,0-0.041-0.01
					c-2.205,2.893-4.74,5.51-7.584,7.783c-3.148,2.52-6.619,4.637-10.373,6.242v11.057v13.959c0,4.271-3.482,7.762-7.758,7.762
					h-19.428c-4.279,0-7.754-3.48-7.754-7.762v-13.959v-11.057c-3.756-1.605-7.236-3.723-10.381-6.242
					c-10.219-8.191-16.801-20.752-16.801-34.834c0-24.619,20.033-44.652,44.65-44.652c3.441,0,7.029,0.518,10.242,1.281
					c0-0.002,0-0.01,0-0.01c0.402,0.094,0.805,0.164,1.234,0.164c2.85,0,5.154-2.336,5.154-5.207c0-2.475-1.711-4.533-3.996-5.068
					l0,0l0,0c-0.078-0.02-0.146-0.031-0.221-0.049c-3.998-0.943-8.135-1.494-12.41-1.494c-30.342,0-55.025,24.684-55.025,55.031
					c0,20.17,10.955,37.791,27.18,47.373v18.715c0,9.279,7.002,16.947,15.998,18c0.984,2.518,3.434,4.313,6.299,4.313h11.096
					c2.873,0,5.316-1.795,6.297-4.313c9.002-1.053,16.004-8.721,16.004-18v-18.715c6.063-3.582,11.381-8.281,15.662-13.826
					c-0.014-0.006-0.016-0.021-0.031-0.027c0.885-0.938,1.438-2.197,1.438-3.598C162.315,143.683,160.012,141.354,157.165,141.354z"
					/>
			</g>
		</g>
	</g>
	<g>
		<g>
			<g>
				<line fill="none" x1="94.625" y1="173.757" x2="139.709" y2="173.757"/>
			</g>
		</g>
		<g>
			<g>
				<rect x="94.625" y="169.44" fill="#94323E" width="45.074" height="8.629"/>
			</g>
		</g>
	</g>
</g>
</svg>
