<?xml version="1.0" encoding="UTF-8" standalone="no"?>
<svg width="42px" height="43px" viewBox="0 0 42 43" version="1.1" xmlns="http://www.w3.org/2000/svg" xmlns:xlink="http://www.w3.org/1999/xlink">
    <!-- Generator: sketchtool 41.2 (35397) - http://www.bohemiancoding.com/sketch -->
    <title>D2FFDC05-AF7D-445E-A2D3-6DAF56D0CE94</title>
    <desc>Created with sketchtool.</desc>
    <defs>
        <path d="M1.73934967,4.46716941 L1.73934967,5.88164714 L0.337290502,5.88164714 L0.337290502,8.68968182 L1.73934967,8.68968182 L1.73934967,16.437347 L4.5827143,16.437347 L4.5827143,8.68968182 L7.40617139,8.68968182 L7.40617139,5.88164714 L4.5827143,5.88164714 L4.5827143,4.21437655 C4.5827143,3.51759808 5.77147846,3.15845788 6.32263276,3.15845788 C6.7691303,3.15845788 7.25714928,3.2433033 7.68203293,3.37057143 L8.10577901,0.879254236 C7.32085338,0.603797192 5.87727279,0.561955616 5.07187084,0.561955616 C2.71538762,0.561955616 1.73934967,2.33557355 1.73934967,4.46716941 L1.73934967,4.46716941 Z" id="path-1"></path>
    </defs>
    <g id="Page-1" stroke="none" stroke-width="1" fill="none" fill-rule="evenodd">
        <g id="Desktop-Assets" transform="translate(-870.000000, -1765.000000)">
            <g id="Group-21-Copy" transform="translate(870.500000, 1765.328125)">
                <path d="M20.7169173,42.3332149 C32.1586302,42.3332149 41.4338346,32.856679 41.4338346,21.1666074 C41.4338346,9.47711704 32.1586302,0 20.7169173,0 C9.27520442,0 0,9.47711704 0,21.1666074 C0,32.856679 9.27520442,42.3332149 20.7169173,42.3332149 L20.7169173,42.3332149 Z" id="Stroke-77" fill="#232931"></path>
                <g id="Group-82" transform="translate(16.873786, 12.285714)">
                    <mask id="mask-2" fill="white">
                        <use xlink:href="#path-1"></use>
                    </mask>
                    <g id="Clip-81"></g>
                    <polygon id="Fill-80" fill="#FFFFFF" mask="url(#mask-2)" points="-5.35057632 22.248096 13.7942146 22.248096 13.7942146 -5.24937443 -5.35057632 -5.24937443"></polygon>
                </g>
            </g>
        </g>
    </g>
</svg>