<?xml version="1.0" encoding="utf-8"?>
<!-- Generator: Adobe Illustrator 16.0.0, SVG Export Plug-In . SVG Version: 6.00 Build 0)  -->
<!DOCTYPE svg PUBLIC "-//W3C//DTD SVG 1.1//EN" "http://www.w3.org/Graphics/SVG/1.1/DTD/svg11.dtd">
<svg version="1.1" id="Capa_1" xmlns="http://www.w3.org/2000/svg" xmlns:xlink="http://www.w3.org/1999/xlink" x="0px" y="0px"
	 width="309.815px" height="189.339px" viewBox="0 0 309.815 189.339" enable-background="new 0 0 309.815 189.339"
	 xml:space="preserve">
<g>
	<path fill="#94323E" d="M286.309,152.786V-0.001H23.507v152.787H6.986c-0.453,0-0.896-0.043-1.668-0.1L0,152.411v5.703
		c0,17.215,13.083,31.225,29.16,31.225h251.495c16.076,0,29.16-14.01,29.16-31.225v-5.328H286.309z M33.461,10.659H276.36v142.127
		H33.461V10.659z M175.498,163.442c-0.219,0.729-0.445,1.277-0.625,1.59h-39.924c-0.182-0.313-0.41-0.861-0.623-1.59H175.498z
		 M280.655,178.681H29.16c-8.852,0-16.319-6.439-18.533-15.238h12.881h103.975c0.887,4.828,3.082,8.697,6.813,8.697h41.23
		c3.729,0,5.926-3.869,6.814-8.697h103.97h12.9C297.008,172.206,289.526,178.681,280.655,178.681z"/>
	<polygon fill="#94323E" points="125.298,62.005 125.298,50.7 75.847,76.823 75.847,83.44 125.685,112.624 125.685,100.437 
		89.708,80.216 	"/>
	<polygon fill="#94323E" points="135.095,117.636 145.179,122.429 180.429,46.136 170.46,41.009 	"/>
	<polygon fill="#94323E" points="190.566,62.005 226.256,80.216 190.455,100.437 190.455,112.624 240.295,83.44 240.295,76.823 
		190.566,50.7 	"/>
</g>
</svg>
