<?xml version="1.0" encoding="UTF-8" standalone="no"?>
<svg width="42px" height="43px" viewBox="0 0 42 43" version="1.1" xmlns="http://www.w3.org/2000/svg" xmlns:xlink="http://www.w3.org/1999/xlink">
    <!-- Generator: sketchtool 41.2 (35397) - http://www.bohemiancoding.com/sketch -->
    <title>01532B36-7E5C-42EB-9106-02F39CB2322F</title>
    <desc>Created with sketchtool.</desc>
    <defs>
        <path d="M10.598771,1.02337522 C10.7290232,0.758959704 10.857569,0.627042512 10.7290232,0.494544187 C10.4690877,0.627042512 10.3399731,0.758959704 10.2097209,1.02337522 C9.82180843,1.4208702 9.56301049,1.68528571 9.43332712,2.08161842 C8.91630003,3.00794443 8.52724994,3.80235325 8.268452,4.72867926 L8.13819985,4.72867926 C7.87997069,4.33118429 7.49148939,3.93368931 6.97332472,3.67043606 C6.45572884,3.27294108 5.80788081,3.00794443 5.03148699,2.61103059 C4.25452438,2.21411675 3.47699299,1.81836517 2.57034702,1.55278739 C2.57034702,2.4791134 2.95939711,3.27294108 3.86604308,3.80235325 C3.60610756,3.80235325 3.21876383,3.80235325 2.95939711,3.93368931 C2.95939711,4.72867926 3.60610756,5.38942749 4.77212026,5.65442414 C4.38363896,5.65442414 3.99458887,5.7857602 3.60610756,6.05017571 C3.99458887,6.8440034 4.64300569,7.10900005 5.67876623,7.10900005 C5.54908287,7.24149837 5.29085372,7.37341557 5.29085372,7.37341557 C5.16060157,7.50649502 5.03148699,7.77032941 5.16060157,8.03532606 C5.41883072,8.43165877 5.67876623,8.56473823 6.32547669,8.56473823 C5.41883072,9.49106424 4.25452438,10.0198953 2.95939711,9.88681581 C2.18186571,9.88681581 1.27635731,9.49106424 0.369711343,8.69723655 C1.27635731,10.0198953 2.57034702,11.0775573 4.12540981,11.7388867 C5.93813296,12.2682989 7.75028733,12.4013783 9.43332712,11.8719662 C11.1157981,11.3419729 12.6702921,10.2837297 13.8351673,8.82857261 C14.3533319,8.03532606 14.742382,7.24149837 14.8709278,6.44767069 C15.7781426,6.44767069 16.4259906,6.18325517 16.8139031,5.65442414 C16.5551052,5.7857602 15.9072571,5.7857602 15.00118,5.52134468 C15.9072571,5.38942749 16.5551052,5.12501197 16.683651,4.5955998 C16.0369405,4.86001532 15.39023,4.86001532 14.742382,4.5955998 C14.6126986,3.67043606 14.2242173,2.87544611 13.4472547,2.21411675 C12.7994067,1.55278739 12.0224441,1.28837187 11.2460503,1.4208702 C12.0224441,1.28837187 12.4114942,1.02337522 12.5406088,0.89145803 C12.5406088,0.758959704 12.5406088,0.627042512 12.4114942,0.627042512 C12.0224441,0.627042512 11.6351004,0.758959704 11.3757336,0.89145803 C11.7647837,0.627042512 11.8938983,0.494544187 11.8938983,0.362626995 C11.5048482,0.362626995 11.1157981,0.627042512 10.598771,1.02337522 L10.598771,1.02337522 Z M13.4472547,2.21411675 L13.4472547,2.15484118 L13.4472547,2.21411675 L13.4472547,2.21411675 Z" id="path-1"></path>
    </defs>
    <g id="Page-1" stroke="none" stroke-width="1" fill="none" fill-rule="evenodd">
        <g id="Desktop-Assets" transform="translate(-923.000000, -1765.000000)">
            <g id="Group-16-Copy" transform="translate(923.500000, 1765.328125)">
                <path d="M20.7169173,42.3332149 C32.1586302,42.3332149 41.4338346,32.856679 41.4338346,21.1666074 C41.4338346,9.47711704 32.1586302,0 20.7169173,0 C9.27520442,0 0,9.47711704 0,21.1666074 C0,32.856679 9.27520442,42.3332149 20.7169173,42.3332149 L20.7169173,42.3332149 Z" id="Stroke-83" fill="#5c3c10"></path>
                <g id="Group-87" transform="translate(12.271845, 15.357143)">
                    <mask id="mask-2" fill="white">
                        <use xlink:href="#path-1"></use>
                    </mask>
                    <use id="Clip-86" fill="#D8D8D8" xlink:href="#path-1"></use>
                    <polygon id="Fill-85" fill="#FFFFFF" mask="url(#mask-2)" points="-5.31815548 18.0197722 22.5017699 18.0197722 22.5017699 -5.44928419 -5.31815548 -5.44928419"></polygon>
                </g>
            </g>
        </g>
    </g>
</svg>