<?xml version="1.0" encoding="utf-8"?>
<!-- Generator: Adobe Illustrator 21.0.0, SVG Export Plug-In . SVG Version: 6.00 Build 0)  -->
<svg version="1.1" id="Capa_1" xmlns="http://www.w3.org/2000/svg" xmlns:xlink="http://www.w3.org/1999/xlink" x="0px" y="0px"
	 viewBox="0 0 92 71" style="enable-background:new 0 0 92 71;" xml:space="preserve">
<style type="text/css">
	.st0{fill:#FFFFFF;}
	.st1{fill:#94323F;}
	.st2{fill:#262769;}
	.st3{fill:#94323E;}
</style>
<g>
	<rect x="1725" y="-1215.5" class="st0" width="860" height="63.2"/>
	<g>
		<g>
			<path class="st1" d="M1832.9-1212.1c-0.5-0.2-0.8-0.4-1-0.8c-0.2-0.3-0.3-0.7-0.3-1.2c0-0.5-0.1-1-0.1-1.6
				c-0.1-0.6-0.2-1.3-0.5-1.9c-1.6-3.7-3.8-6.6-6.5-8.7c-2.7-2.1-6.2-3.1-10.5-3.1c-3.4,0-6.5,1-9.2,2.9c-2.8,1.9-5.1,4.6-7.1,8.2
				c-2,3.5-3.5,7.8-4.5,12.7c-1.1,5-1.6,10.5-1.6,16.5c0,5.9,0.6,11.3,1.7,16.2c1.1,4.9,2.7,9.2,4.8,12.8c2.1,3.6,4.5,6.5,7.4,8.5
				c2.9,2,6.1,3.1,9.5,3.1c4.1,0,7.8-1.3,10.9-3.8c3.1-2.5,5.9-6,8.5-10.4l14.6,9.5c-4,6.9-8.9,12.1-14.6,15.7
				c-5.7,3.5-12,5.3-18.7,5.3c-6.3,0-12.1-1.1-17.5-3.4c-5.4-2.3-10-5.7-13.9-10.3c-3.9-4.6-7-10.4-9.2-17.5
				c-2.2-7-3.3-15.2-3.3-24.7c0-7,0.6-13.2,1.8-18.8c1.2-5.6,2.8-10.4,4.9-14.6c2.1-4.2,4.5-7.8,7.3-10.7c2.8-3,5.8-5.4,8.9-7.2
				c3.2-1.9,6.4-3.2,9.8-4.1c3.3-0.9,6.6-1.3,9.8-1.3c4,0,7.9,0.6,11.6,1.8c3.7,1.2,7.1,2.8,10.2,5c3.1,2.1,5.9,4.7,8.3,7.7
				c2.4,3,4.4,6.3,6,9.9L1832.9-1212.1z"/>
			<path class="st1" d="M1869.7-1215.5h37.5v65.1h17.7v14.9h-56v-14.9h19.3v-50.2h-18.5V-1215.5z M1898-1251.3
				c1.6,0,3.2,0.3,4.6,0.9c1.5,0.6,2.7,1.4,3.8,2.3c1.1,1,2,2.1,2.6,3.5c0.6,1.3,1,2.8,1,4.3c0,1.5-0.3,2.9-1,4.3
				c-0.6,1.3-1.5,2.5-2.6,3.5c-1.1,1-2.4,1.8-3.8,2.3c-1.5,0.6-3,0.8-4.6,0.8s-3.2-0.3-4.6-0.8c-1.5-0.6-2.8-1.3-3.8-2.3
				c-1.1-1-2-2.2-2.6-3.5c-0.6-1.3-1-2.8-1-4.3c0-1.3,0.3-2.7,0.8-4c0.5-1.3,1.3-2.5,2.3-3.5c1-1,2.3-1.9,3.8-2.5
				C1894.2-1251,1896-1251.3,1898-1251.3z"/>
			<path class="st1" d="M1948.4-1135.5v-115.7h21.8c0,0.7-0.1,1.2-0.3,1.6c-0.2,0.4-0.5,0.7-0.8,1c-0.3,0.3-0.6,0.6-0.8,1
				c-0.3,0.3-0.4,0.8-0.5,1.3v38.9c2.8-3,6-5.4,9.7-7.2c3.7-1.8,7.4-2.7,11.2-2.7c4.1,0,7.8,0.6,11,1.8c3.3,1.2,6.1,3.2,8.4,5.8
				c2.3,2.7,4.1,6.1,5.3,10.3c1.3,4.2,1.9,9.3,1.9,15.3v48.5h-18.9v-48.4c0-3.1-0.3-5.7-0.8-8c-0.6-2.2-1.3-4.1-2.3-5.5
				c-1-1.4-2.2-2.5-3.6-3.1c-1.4-0.7-3-1-4.7-1c-2.4,0-4.6,0.5-6.7,1.4c-2.1,1-3.9,2.3-5.4,4c-1.5,1.7-2.7,3.8-3.6,6.2
				c-0.9,2.4-1.3,5.1-1.3,8v46.3H1948.4z"/>
			<path class="st1" d="M2099.4-1215.5v70.4c0,1.5,0.2,3,0.5,4.6c0.3,1.6,0.7,3.3,1.1,5h-18.6c-0.7-0.5-1.1-1.3-1.3-2.3
				c-0.2-1-0.3-1.9-0.3-2.7v-2.6c-1.2,1.7-2.6,3.3-4.3,4.6c-1.7,1.3-3.5,2.5-5.4,3.4c-2,0.9-3.9,1.7-6,2.2c-2,0.5-4,0.8-5.9,0.8
				c-4.2,0-7.9-0.6-11.2-1.8c-3.3-1.2-6.1-3.2-8.4-5.9c-2.3-2.7-4-6.1-5.2-10.4c-1.2-4.2-1.8-9.3-1.8-15.3v-50.1h18.9v50.1
				c0,6.1,1,10.6,3.1,13.4c2.1,2.8,4.9,4.2,8.3,4.2c2.4,0,4.6-0.5,6.7-1.5c2.1-1,3.9-2.3,5.4-4.1c1.5-1.7,2.7-3.8,3.6-6.2
				c0.9-2.4,1.3-5.1,1.3-8v-48H2099.4z"/>
			<path class="st1" d="M2122.4-1204.2c8.3-8.7,18.4-13.1,30.3-13.1c5.1,0,9.6,0.6,13.6,1.9c4,1.3,7.4,3.3,10.2,6
				c2.8,2.7,4.9,6.1,6.4,10.3c1.5,4.2,2.3,9.1,2.3,14.9v48.7h-18.3v-7.2c-3,2.8-6.6,5.1-10.8,6.8c-4.2,1.7-8.3,2.5-12.5,2.5
				c-4.7,0-8.7-0.6-12.2-1.9c-3.4-1.3-6.3-2.9-8.5-5.1c-2.2-2.1-3.9-4.6-5-7.4c-1.1-2.8-1.6-5.8-1.6-9c0-4.1,0.9-7.9,2.6-11.3
				s4.3-6.4,7.7-8.9c3.4-2.5,7.6-4.4,12.6-5.8c5-1.4,10.8-2.1,17.3-2.1h10.1c-0.1-6.1-1.3-10.5-3.7-13.2c-2.3-2.7-6-4.1-11-4.1
				c-6.5,0-13.2,3.5-19.9,10.6L2122.4-1204.2z M2160.2-1170.5c-5-0.1-9.2,0.2-12.4,0.9c-3.2,0.7-5.8,1.7-7.6,2.9
				c-1.8,1.2-3.1,2.6-3.8,4.2c-0.7,1.6-1,3.2-1,4.7c0,1.3,0.3,2.6,0.9,3.8c0.6,1.2,1.5,2.2,2.5,3.1c1.1,0.9,2.3,1.6,3.7,2.1
				c1.4,0.5,2.9,0.8,4.6,0.8c2.6,0,5-0.5,7.1-1.4s3.9-2,5.5-3.3c1.6-1.3,2.9-2.6,3.9-4c1.1-1.4,1.8-2.6,2.3-3.6
				c0.4-0.8,0.8-2.1,1-3.7c0.2-1.6,0.3-3.7,0.3-6.2L2160.2-1170.5z"/>
			<path class="st2" d="M2205.5-1135.5v-115.7h21.8c0,0.7-0.1,1.2-0.3,1.6c-0.2,0.4-0.5,0.7-0.8,1c-0.3,0.3-0.6,0.6-0.8,1
				c-0.3,0.3-0.4,0.8-0.5,1.3v38.9c2.8-3,6-5.4,9.7-7.2c3.7-1.8,7.4-2.7,11.2-2.7c4.1,0,7.8,0.6,11,1.8c3.3,1.2,6.1,3.2,8.4,5.8
				c2.3,2.7,4.1,6.1,5.3,10.3c1.3,4.2,1.9,9.3,1.9,15.3v48.5h-18.9v-48.4c0-3.1-0.3-5.7-0.8-8c-0.6-2.2-1.3-4.1-2.3-5.5
				c-1-1.4-2.2-2.5-3.6-3.1c-1.4-0.7-3-1-4.7-1c-2.4,0-4.6,0.5-6.7,1.4c-2.1,1-3.9,2.3-5.4,4c-1.5,1.7-2.8,3.8-3.6,6.2
				c-0.9,2.4-1.3,5.1-1.3,8v46.3H2205.5z"/>
			<path class="st2" d="M2293.8-1204.2c8.3-8.7,18.4-13.1,30.3-13.1c5.1,0,9.6,0.6,13.6,1.9c4,1.3,7.4,3.3,10.2,6
				c2.8,2.7,4.9,6.1,6.4,10.3c1.5,4.2,2.3,9.1,2.3,14.9v48.7h-18.3v-7.2c-3,2.8-6.6,5.1-10.8,6.8c-4.2,1.7-8.3,2.5-12.5,2.5
				c-4.7,0-8.7-0.6-12.2-1.9c-3.4-1.3-6.3-2.9-8.5-5.1c-2.2-2.1-3.9-4.6-5-7.4c-1.1-2.8-1.6-5.8-1.6-9c0-4.1,0.9-7.9,2.6-11.3
				c1.8-3.4,4.3-6.4,7.7-8.9c3.4-2.5,7.6-4.4,12.6-5.8c5-1.4,10.8-2.1,17.3-2.1h10.1c-0.1-6.1-1.3-10.5-3.7-13.2
				c-2.3-2.7-6-4.1-11-4.1c-6.5,0-13.2,3.5-19.9,10.6L2293.8-1204.2z M2331.7-1170.5c-5-0.1-9.2,0.2-12.4,0.9
				c-3.2,0.7-5.8,1.7-7.6,2.9c-1.8,1.2-3.1,2.6-3.8,4.2c-0.7,1.6-1,3.2-1,4.7c0,1.3,0.3,2.6,0.9,3.8c0.6,1.2,1.5,2.2,2.5,3.1
				c1.1,0.9,2.3,1.6,3.7,2.1c1.4,0.5,2.9,0.8,4.6,0.8c2.6,0,5-0.5,7.1-1.4c2.1-0.9,3.9-2,5.5-3.3c1.6-1.3,2.9-2.6,3.9-4
				c1.1-1.4,1.8-2.6,2.3-3.6c0.4-0.8,0.8-2.1,1-3.7c0.2-1.6,0.3-3.7,0.3-6.2L2331.7-1170.5z"/>
			<path class="st2" d="M2433.5-1187.4c-0.5-0.1-0.9-0.3-1.1-0.6c-0.2-0.3-0.4-0.7-0.5-1c-0.1-0.4-0.2-0.8-0.3-1.3
				c-0.1-0.5-0.2-1-0.4-1.5c-1.6-2.7-3.8-4.9-6.7-6.7c-2.9-1.8-6.5-2.7-10.8-2.7c-2.9,0-5.6,0.6-8.2,1.9c-2.6,1.3-4.8,3-6.7,5.3
				c-1.9,2.3-3.4,5-4.5,8.1c-1.1,3.1-1.7,6.6-1.7,10.3c0,3.8,0.5,7.3,1.5,10.5c1,3.2,2.5,6,4.4,8.4c1.9,2.4,4.1,4.3,6.7,5.6
				c2.6,1.3,5.5,2,8.7,2c1.6,0,3.2-0.2,4.9-0.5c1.7-0.4,3.4-1,5.1-1.8c1.7-0.8,3.4-1.9,5.1-3.3c1.7-1.4,3.3-3,4.9-5l11.1,12.9
				c-4.5,5.1-9.5,8.7-14.9,10.9c-5.4,2.2-11.1,3.3-17.2,3.3c-5.9,0-11.2-1.1-16.1-3.2c-4.9-2.1-9.1-5-12.6-8.8
				c-3.5-3.7-6.3-8.2-8.2-13.3c-2-5.1-3-10.7-3-16.7c0-6,1-11.5,2.9-16.7c2-5.2,4.7-9.7,8.3-13.5c3.6-3.8,7.9-6.8,12.8-9
				c5-2.2,10.5-3.3,16.5-3.3c3.3,0,6.6,0.3,9.7,1c3.1,0.7,6.1,1.6,8.8,2.9c2.8,1.3,5.3,2.9,7.6,4.8c2.3,1.9,4.3,4.1,5.9,6.7
				L2433.5-1187.4z"/>
			<path class="st2" d="M2462.6-1251.1h21.8c0,0.7-0.1,1.2-0.3,1.6c-0.2,0.4-0.5,0.7-0.8,1c-0.3,0.3-0.6,0.6-0.8,0.9
				c-0.3,0.3-0.4,0.8-0.5,1.3v60.3l30.7-30.4c4.1,1,7.3,1.4,9.8,1.4h12.5l-32.7,31.6c2.8,3.4,5.8,7.2,9,11.4
				c3.1,4.2,6.3,8.5,9.4,12.8c3.2,4.3,6.2,8.5,9.3,12.6c3,4.1,5.9,7.8,8.5,11l-23.4,0.8l-26.4-36.8l-6.5,6.2v30h-19.3V-1251.1z"/>
		</g>
		<g>
			<g>
				<path class="st2" d="M1774.4-1113.9h3.9c0,0,0,0.1,0,0.1c0,0.2-0.2,0.4-0.3,0.5c-0.2,0.2-0.2,0.3-0.2,0.4v12.4
					c1.6-2.4,4.2-4.3,7.1-4.3c2.4,0,4.6,1.4,5.7,3.8c0.8,1.7,0.8,3.5,0.8,5.1v12.9h-3.3v-12.8c0-1.5,0-3.3-1.2-4.7
					c-0.8-0.9-1.8-1.3-2.9-1.3c-2.3,0-4.3,1.9-5.1,3c-0.9,1.2-1.1,2.2-1.1,3.7v12.3h-3.4V-1113.9z"/>
				<path class="st2" d="M1806.2-1104.7c3.3,0,6,1.2,7.4,3.5c1,1.6,1,3.3,1,5v13.2h-3.2v-2.3c-2.3,1.9-5,2.9-7.7,2.9
					c-4.5,0-7.2-2.9-7.2-6c0-2.4,1.5-4.9,4.9-6.1c2.7-1,6.1-1,9.2-1h0.7v-0.8c0-1.1,0-2.5-0.7-3.7c-0.6-1-1.9-2.1-4.4-2.1
					c-2,0-4.4,0.5-6.1,2.4l-1.6-2.1C1800.6-1103.8,1803.4-1104.7,1806.2-1104.7z M1810.8-1092.9c-2.2,0-5.1-0.1-7,0.3
					c-2.7,0.6-3.8,2.4-3.8,3.9c0,1.9,1.7,3.7,4.5,3.7c2.8,0,4.8-1.7,5.6-2.5c1.4-1.5,1.4-2.9,1.4-4v-1.4H1810.8z"/>
				<path class="st2" d="M1836.7-1098c-0.4-0.3-0.1-0.7-0.3-1.1c-0.1-0.3-1.9-2.8-5.5-2.8c-3.9,0-7,3-7,7.9c0,5,3.2,8.5,7.3,8.5
					c2.1,0,4.2-0.9,5.6-2.6l1.9,2.3c-2,2.2-4.9,3.4-7.9,3.4c-6,0-10.5-4.7-10.5-11.2c0-6.4,4.4-11.1,10.7-11.1c3.4,0,6.3,1.5,8,3.9
					L1836.7-1098z"/>
				<path class="st2" d="M1848-1113.9c0.1,0.3-0.2,0.5-0.3,0.7c-0.2,0.2-0.2,0.3-0.2,0.5v18.3l10.7-9.9c0.8,0.2,1.7,0.2,2.5,0.2h1.2
					l-9,8.5l10.5,12.8c-0.1,0-0.2,0-0.3,0c-2.2,0-4,0.2-4,0.2l-8.7-10.9l-2.8,2.6v8.1h-3.4v-31H1848z"/>
				<path class="st2" d="M1876.2-1104.7c3.3,0,6,1.2,7.4,3.5c1,1.6,1,3.3,1,5v13.2h-3.2v-2.3c-2.3,1.9-5,2.9-7.7,2.9
					c-4.5,0-7.2-2.9-7.2-6c0-2.4,1.5-4.9,4.9-6.1c2.7-1,6.1-1,9.2-1h0.7v-0.8c0-1.1,0-2.5-0.7-3.7c-0.6-1-1.9-2.1-4.4-2.1
					c-2,0-4.4,0.5-6.1,2.4l-1.6-2.1C1870.6-1103.8,1873.3-1104.7,1876.2-1104.7z M1880.8-1092.9c-2.2,0-5.1-0.1-7,0.3
					c-2.7,0.6-3.8,2.4-3.8,3.9c0,1.9,1.7,3.7,4.5,3.7c2.8,0,4.8-1.7,5.6-2.5c1.4-1.5,1.4-2.9,1.4-4v-1.4H1880.8z"/>
				<path class="st2" d="M1900.1-1110.6c0.2,0.5-0.2,0.8-0.3,1.3c-0.2,1.2-0.5,5-0.5,5h7v2.8h-7c-0.3,2.8-0.4,5.6-0.4,8.3
					c0,3.1,0.1,3.9,0.1,4.1c0.3,2.6,2,3.4,3.6,3.4c1.3,0,3-0.6,4.8-1.9l1,2.7c-1.8,1.3-4.3,2.4-6.8,2.4c-2.2,0-3.8-0.8-4.9-2.3
					c-1.2-1.7-1.3-3.9-1.3-5.8c0-3.6,0.1-7.2,0.4-10.9h-5l0-2.7h5.1l0.4-5.7L1900.1-1110.6z"/>
				<path class="st2" d="M1914.3-1113.9h3.9c0,0,0,0.1,0,0.1c0,0.2-0.2,0.4-0.3,0.5c-0.2,0.2-0.2,0.3-0.2,0.4v12.4
					c1.6-2.4,4.2-4.3,7.1-4.3c2.4,0,4.6,1.4,5.7,3.8c0.8,1.7,0.8,3.5,0.8,5.1v12.9h-3.3v-12.8c0-1.5,0-3.3-1.2-4.7
					c-0.8-0.9-1.8-1.3-2.9-1.3c-2.3,0-4.3,1.9-5.1,3c-0.9,1.2-1.1,2.2-1.1,3.7v12.3h-3.4V-1113.9z"/>
				<path class="st2" d="M1946.2-1082.4c-5.4,0-10-4.6-10-11.1c0-6.6,4.7-11.3,10.1-11.3c4.8,0,9.5,3.9,9.5,11.2
					C1955.8-1086.4,1951.3-1082.4,1946.2-1082.4z M1939.8-1093.7c0,5.3,3.1,8.4,6.5,8.4c3.1,0,6.2-2.7,6.2-8.1
					c0-5.9-3.3-8.5-6.3-8.5C1942.8-1101.9,1939.8-1098.9,1939.8-1093.7z"/>
				<path class="st2" d="M1960.9-1104.2h3.4v3.7c1.6-2.4,4.2-4.3,7.1-4.3c2.4,0,4.6,1.4,5.7,3.8c0.8,1.7,0.8,3.5,0.8,5.1v12.9h-3.3
					v-12.8c0-1.5,0-3.3-1.2-4.7c-0.8-0.9-1.8-1.3-2.9-1.3c-2.3,0-4.3,1.9-5.1,3c-0.9,1.2-1.1,2.2-1.1,3.7v12.3h-3.4V-1104.2z"/>
				<path class="st2" d="M2010.5-1104.2v3.3c1.4-2.3,4-3.7,6.7-3.7c4.2,0,8.6,3.4,8.6,10.9c0,7.8-4.6,11.5-8.9,11.5
					c-2.6,0-5-1.3-6.4-3.4v10.6h-3.4l0-29.1H2010.5z M2011.1-1098.8c-0.5,1.1-0.6,2.4-0.6,4.2c0,3.1,0,4.8,0.6,6.3
					c0.8,1.9,2.9,2.9,4.9,2.9c2,0,6.4-1.1,6.4-7.8c0-7.7-4.5-8.7-6.4-8.7C2013.9-1101.9,2011.9-1100.7,2011.1-1098.8z"/>
				<path class="st2" d="M2039.5-1082.4c-5.4,0-10-4.6-10-11.1c0-6.6,4.7-11.3,10.1-11.3c4.8,0,9.5,3.9,9.5,11.2
					C2049.1-1086.4,2044.6-1082.4,2039.5-1082.4z M2033.1-1093.7c0,5.3,3.1,8.4,6.5,8.4c3.1,0,6.2-2.7,6.2-8.1
					c0-5.9-3.3-8.5-6.3-8.5C2036.1-1101.9,2033.1-1098.9,2033.1-1093.7z"/>
				<path class="st2" d="M2059.1-1104.2l-0.1,4.1c1.4-3,4.6-4.6,7.7-4.6c2.4,0,4.4,1,5.7,2.3l-1.6,3.2c-0.4-0.3-0.5-0.7-0.8-1.1
					c-0.6-0.8-1.7-1.6-3.5-1.6c-1.5,0-4,0.5-6,3.6c-1.4,2.3-1.5,3.7-1.5,5v10.4h-3.4v-21.3H2059.1z"/>
				<path class="st2" d="M2103.9-1104.2v11.9c0,1.4,0,3.1,0.8,4.6c0.8,1.7,2.4,2.6,4.1,2.6c2.1,0,3.9-1.4,4.9-3.2
					c0.7-1.3,0.8-2.6,0.8-4.2v-11.7h3.4v19.4c0,0.6,0,1.3,0.2,1.9h-3.5c-0.1-0.5-0.1-1.1-0.1-1.7l0-1.6c-1.4,2.4-3.9,3.8-6.6,3.8
					c-2.8,0-5.4-1.5-6.6-4.3c-0.8-1.9-0.9-3.7-0.8-5.6l0-11.9H2103.9z"/>
				<path class="st2" d="M2124.1-1104.2h3.4v3.7c1.6-2.4,4.2-4.3,7.1-4.3c2.4,0,4.6,1.4,5.7,3.8c0.8,1.7,0.8,3.5,0.8,5.1v12.9h-3.3
					v-12.8c0-1.5,0-3.3-1.2-4.7c-0.8-0.9-1.8-1.3-2.9-1.3c-2.3,0-4.3,1.9-5.1,3c-0.9,1.2-1.1,2.2-1.1,3.7v12.3h-3.4V-1104.2z"/>
				<path class="st2" d="M2189.4-1106.5l-3.1,1.5c-0.2-0.2-0.2-0.4-0.2-0.5c0-0.1,0-0.2,0-0.3c0-0.2-0.1-0.3-0.2-0.5
					c-1.2-2-3.3-3.4-5.6-3.4c-4.1,0-7.8,4.3-7.8,12c0,7.9,3.8,12.3,8,12.3c2.3,0,4.6-1.3,5.9-3.5l2.4,1.6c-1.8,3-5.1,4.8-8.5,4.8
					c-4.8,0-11-3.6-11-14.8c0-11.6,6.5-14.9,11.1-14.9C2184.4-1112.2,2187.9-1110,2189.4-1106.5z"/>
				<path class="st2" d="M2204.4-1104.3v18.6h5v2.7h-13.8v-2.7h5.4v-15.9h-5.2v-2.7H2204.4z M2205.2-1111.1c0,1.3-1.1,2.4-2.4,2.4
					c-1.3,0-2.4-1.1-2.4-2.4s1.1-2.4,2.4-2.4C2204.1-1113.5,2205.2-1112.5,2205.2-1111.1z"/>
				<path class="st2" d="M2217.5-1113.9h3.9c0,0,0,0.1,0,0.1c0,0.2-0.2,0.4-0.3,0.5c-0.2,0.2-0.2,0.3-0.2,0.4v12.4
					c1.6-2.4,4.2-4.3,7.1-4.3c2.4,0,4.6,1.4,5.7,3.8c0.8,1.7,0.8,3.5,0.8,5.1v12.9h-3.3v-12.8c0-1.5,0-3.3-1.2-4.7
					c-0.8-0.9-1.8-1.3-2.9-1.3c-2.3,0-4.3,1.9-5.1,3c-0.9,1.2-1.1,2.2-1.1,3.7v12.3h-3.4V-1113.9z"/>
				<path class="st2" d="M2243.9-1104.2v11.9c0,1.4,0,3.1,0.8,4.6c0.8,1.7,2.4,2.6,4.1,2.6c2.1,0,3.9-1.4,4.9-3.2
					c0.7-1.3,0.8-2.6,0.8-4.2v-11.7h3.4v19.4c0,0.6,0,1.3,0.2,1.9h-3.5c-0.1-0.5-0.1-1.1-0.1-1.7l0-1.6c-1.4,2.4-3.9,3.8-6.6,3.8
					c-2.8,0-5.4-1.5-6.6-4.3c-0.8-1.9-0.9-3.7-0.8-5.6l0-11.9H2243.9z"/>
				<path class="st2" d="M2272.7-1104.7c3.3,0,6,1.2,7.4,3.5c1,1.6,1,3.3,1,5v13.2h-3.2v-2.3c-2.3,1.9-5,2.9-7.7,2.9
					c-4.5,0-7.2-2.9-7.2-6c0-2.4,1.5-4.9,4.9-6.1c2.7-1,6.1-1,9.2-1h0.7v-0.8c0-1.1,0-2.5-0.7-3.7c-0.6-1-1.9-2.1-4.4-2.1
					c-2,0-4.4,0.5-6.1,2.4l-1.6-2.1C2267.1-1103.8,2269.8-1104.7,2272.7-1104.7z M2277.3-1092.9c-2.2,0-5.1-0.1-7,0.3
					c-2.7,0.6-3.8,2.4-3.8,3.9c0,1.9,1.7,3.7,4.5,3.7c2.8,0,4.8-1.7,5.6-2.5c1.4-1.5,1.4-2.9,1.4-4v-1.4H2277.3z"/>
				<path class="st2" d="M2296.6-1110.6c0.2,0.5-0.2,0.8-0.3,1.3c-0.2,1.2-0.5,5-0.5,5h7v2.8h-7c-0.3,2.8-0.4,5.6-0.4,8.3
					c0,3.1,0.1,3.9,0.1,4.1c0.3,2.6,2,3.4,3.6,3.4c1.3,0,3-0.6,4.8-1.9l1,2.7c-1.8,1.3-4.3,2.4-6.8,2.4c-2.2,0-3.8-0.8-4.9-2.3
					c-1.2-1.7-1.3-3.9-1.3-5.8c0-3.6,0.1-7.2,0.4-10.9h-5l0-2.7h5.1l0.4-5.7L2296.6-1110.6z"/>
				<path class="st2" d="M2319.3-1104.7c3.3,0,6,1.2,7.4,3.5c1,1.6,1,3.3,1,5v13.2h-3.2v-2.3c-2.3,1.9-5,2.9-7.7,2.9
					c-4.5,0-7.2-2.9-7.2-6c0-2.4,1.5-4.9,4.9-6.1c2.7-1,6.1-1,9.2-1h0.7v-0.8c0-1.1,0-2.5-0.7-3.7c-0.6-1-1.9-2.1-4.4-2.1
					c-2,0-4.4,0.5-6.1,2.4l-1.6-2.1C2313.7-1103.8,2316.5-1104.7,2319.3-1104.7z M2323.9-1092.9c-2.2,0-5.1-0.1-7,0.3
					c-2.7,0.6-3.8,2.4-3.8,3.9c0,1.9,1.7,3.7,4.5,3.7c2.8,0,4.8-1.7,5.6-2.5c1.4-1.5,1.4-2.9,1.4-4v-1.4H2323.9z M2324-1113.6
					l-4.7,6.3l-2.3-1.4l4.1-6.8L2324-1113.6z"/>
				<path class="st2" d="M2334-1104.2h3.4v3.7c1.6-2.4,4.2-4.3,7.1-4.3c2.4,0,4.6,1.4,5.7,3.8c0.8,1.7,0.8,3.5,0.8,5.1v12.9h-3.3
					v-12.8c0-1.5,0-3.3-1.2-4.7c-0.8-0.9-1.8-1.3-2.9-1.3c-2.3,0-4.3,1.9-5.1,3c-0.9,1.2-1.1,2.2-1.1,3.7v12.3h-3.4V-1104.2z"/>
				<path class="st2" d="M2383.3-1104.3c0.1,0.4-0.1,0.6-0.1,0.9c0,0.1,0,0.2,0.1,0.3l6.2,15.6l3.4-7.9c1.2-2.8,2.3-5.8,2.9-8.9h3
					c-0.7,3.2-1.9,6.4-3.2,9.3l-5.2,12.2h-2.6l-8.5-21.5H2383.3z"/>
				<path class="st2" d="M2414.3-1104.3v18.6h5v2.7h-13.8v-2.7h5.4v-15.9h-5.2v-2.7H2414.3z M2415.1-1111.1c0,1.3-1.1,2.4-2.4,2.4
					c-1.3,0-2.4-1.1-2.4-2.4s1.1-2.4,2.4-2.4C2414-1113.5,2415.1-1112.5,2415.1-1111.1z"/>
				<path class="st2" d="M2432.2-1104.2l-0.1,4.1c1.4-3,4.6-4.6,7.7-4.6c2.4,0,4.4,1,5.7,2.3l-1.6,3.2c-0.4-0.3-0.5-0.7-0.8-1.1
					c-0.6-0.8-1.7-1.6-3.5-1.6c-1.5,0-4,0.5-6,3.6c-1.4,2.3-1.5,3.7-1.5,5v10.4h-3.4v-21.3H2432.2z"/>
				<path class="st2" d="M2459.9-1110.6c0.2,0.5-0.2,0.8-0.3,1.3c-0.2,1.2-0.5,5-0.5,5h7v2.8h-7c-0.3,2.8-0.4,5.6-0.4,8.3
					c0,3.1,0.1,3.9,0.1,4.1c0.3,2.6,2,3.4,3.6,3.4c1.3,0,3-0.6,4.8-1.9l1,2.7c-1.8,1.3-4.3,2.4-6.8,2.4c-2.2,0-3.8-0.8-4.9-2.3
					c-1.2-1.7-1.3-3.9-1.3-5.8c0-3.6,0.1-7.2,0.4-10.9h-5l0-2.7h5.1l0.4-5.7L2459.9-1110.6z"/>
				<path class="st2" d="M2477.1-1104.2v11.9c0,1.4,0,3.1,0.8,4.6c0.8,1.7,2.4,2.6,4.1,2.6c2.1,0,3.9-1.4,4.9-3.2
					c0.7-1.3,0.8-2.6,0.8-4.2v-11.7h3.4v19.4c0,0.6,0,1.3,0.2,1.9h-3.5c-0.1-0.5-0.1-1.1-0.1-1.7l0-1.6c-1.4,2.4-3.9,3.8-6.6,3.8
					c-2.8,0-5.4-1.5-6.6-4.3c-0.8-1.9-0.9-3.7-0.8-5.6l0-11.9H2477.1z"/>
				<path class="st2" d="M2505.9-1104.7c3.3,0,6,1.2,7.4,3.5c1,1.6,1,3.3,1,5v13.2h-3.2v-2.3c-2.3,1.9-5,2.9-7.7,2.9
					c-4.5,0-7.2-2.9-7.2-6c0-2.4,1.5-4.9,4.9-6.1c2.7-1,6.1-1,9.2-1h0.7v-0.8c0-1.1,0-2.5-0.7-3.7c-0.6-1-1.9-2.1-4.4-2.1
					c-2,0-4.4,0.5-6.1,2.4l-1.6-2.1C2500.3-1103.8,2503-1104.7,2505.9-1104.7z M2510.5-1092.9c-2.2,0-5.1-0.1-7,0.3
					c-2.7,0.6-3.8,2.4-3.8,3.9c0,1.9,1.7,3.7,4.5,3.7c2.8,0,4.8-1.7,5.6-2.5c1.4-1.5,1.4-2.9,1.4-4v-1.4H2510.5z"/>
				<path class="st2" d="M2530.8-1113.9v28.3h6.3v2.7h-16v-2.7h6.3v-25.6h-6v-2.7H2530.8z"/>
			</g>
		</g>
	</g>
</g>
<g>
	<path class="st3" d="M78.5,27.2c-0.2-2.6-0.5-5.2-1-7.8c-0.7-3.5-2.7-6.1-6-7.6c-1.1-0.5-2.3-0.7-3.5-0.9c-2.6-0.4-5.2-0.7-7.8-0.9
		c-2.2-0.2-4.4-0.4-6.6-0.5c-2.9-0.2-5.9-0.3-9.1-0.3c-1,0-2.2,0-3.4,0c-1.2,0-2.5,0.1-3.7,0.1c-2.3,0.1-4.5,0.3-6.8,0.5
		c-2.1,0.2-4.2,0.4-6.3,0.7c-1.4,0.2-2.8,0.3-4.2,0.6c-4.2,0.8-7.5,4.3-8.2,8.5c-0.4,2.2-0.7,4.4-0.9,6.5c-0.2,2.2-0.4,4.5-0.4,6.7
		c-0.1,2.6-0.1,5.3,0.1,7.9c0.1,1.5,0.2,3,0.3,4.5c0.2,1.8,0.4,3.6,0.7,5.4c0.2,1.1,0.3,2.1,0.6,3.2c1.1,3.3,3.3,5.6,6.6,6.7
		c1.1,0.4,2.2,0.5,3.3,0.6c2.1,0.3,4.2,0.5,6.3,0.8c1.8,0.2,3.5,0.3,5.3,0.5c2.1,0.1,4.2,0.2,6.3,0.3c4.5,0.2,9,0.1,13.5-0.2
		c2.6-0.1,5.2-0.4,7.8-0.6c2.5-0.3,5.1-0.5,7.6-1c4.2-0.8,7-3.3,8.3-7.3c0.5-1.4,0.6-2.8,0.8-4.3c0.5-3.2,0.7-6.5,0.8-9.7
		C79,35.5,78.9,31.4,78.5,27.2z M73.7,39.5c-0.1,3.1-0.4,6.2-0.8,9.2c-0.2,1.1-0.3,2.3-0.6,3.4c-0.6,2.2-2.4,3.8-4.7,4.1
		c-1.4,0.2-2.7,0.4-4.1,0.5c-1.2,0.2-2.5,0.3-3.8,0.4c-1.7,0.2-3.4,0.3-5.2,0.4c-3.4,0.2-6.8,0.4-10.2,0.4c-2.7,0-5.3-0.1-8-0.2
		c-2.3-0.1-4.6-0.3-6.9-0.5c-2-0.2-4.1-0.4-6.1-0.7c-1-0.1-2-0.2-3-0.5c-2.2-0.6-3.6-2.1-4-4.3c-0.5-2.7-0.8-5.5-1-8.2
		c-0.3-3.7-0.4-7.3-0.2-11c0.1-2.6,0.3-5.3,0.6-7.9c0.2-1.5,0.4-3,0.7-4.5c0.5-2.3,2.3-3.9,4.6-4.3c1.8-0.3,3.7-0.5,5.6-0.7
		c2.4-0.3,4.8-0.5,7.3-0.7c4.2-0.3,8.3-0.4,12.5-0.4c2.5,0,5,0.1,7.5,0.3c2.2,0.1,4.4,0.3,6.6,0.6c2.4,0.2,4.8,0.6,7.2,0.9
		c2.4,0.3,4.2,2.2,4.7,4.5c0.5,2.7,0.8,5.5,1,8.3C73.7,32.2,73.8,35.9,73.7,39.5z"/>
	<path class="st3" d="M35,48.2c8.1-4.1,16.2-8.1,24.4-12.2c-8.2-4.1-16.3-8.1-24.4-12.2C35,32,35,40.1,35,48.2z"/>
</g>
</svg>
