<?xml version="1.0" encoding="utf-8"?>
<!-- Generator: Adobe Illustrator 16.0.0, SVG Export Plug-In . SVG Version: 6.00 Build 0)  -->
<!DOCTYPE svg PUBLIC "-//W3C//DTD SVG 1.1//EN" "http://www.w3.org/Graphics/SVG/1.1/DTD/svg11.dtd">
<svg version="1.1" id="Capa_1" xmlns="http://www.w3.org/2000/svg" xmlns:xlink="http://www.w3.org/1999/xlink" x="0px" y="0px"
	 width="193.731px" height="184.19px" viewBox="0 0 193.731 184.19" enable-background="new 0 0 193.731 184.19"
	 xml:space="preserve">
<g>
	<g>
		<g>
			<g>
				<path fill="#94323E" d="M157.4,184.19H36.326C16.294,184.19,0,170.89,0,154.55V49.813c0-16.338,16.295-29.635,36.326-29.635
					H157.4c20.032,0,36.331,13.297,36.331,29.635V154.55C193.731,170.89,177.428,184.19,157.4,184.19z M36.326,30.554
					c-14.303,0-25.949,8.637-25.949,19.26V154.55c0,10.617,11.646,19.262,25.949,19.262H157.4c14.308,0,25.95-8.645,25.95-19.262
					V49.813c0-10.623-11.643-19.26-25.95-19.26H36.326z"/>
			</g>
		</g>
	</g>
	<g>
		<g>
			<g>
				<rect x="5.49" y="71.755" fill="#94323E" width="183.353" height="10.387"/>
			</g>
		</g>
	</g>
	<g>
		<g>
			<g>
				<path fill="#94323E" d="M58.691,35.468c0,5.568-4.518,10.088-10.092,10.088l0,0c-5.574,0-10.094-4.52-10.094-10.088V15.276
					c0-5.582,4.518-10.098,10.094-10.098l0,0c5.572,0,10.092,4.512,10.092,10.098V35.468z"/>
			</g>
		</g>
		<g>
			<g>
				<path fill="#94323E" d="M48.593,50.743c-8.43,0-15.281-6.861-15.281-15.275V15.276c0-8.439,6.857-15.277,15.281-15.277
					c8.43,0,15.285,6.848,15.285,15.277v20.191C63.882,43.89,57.023,50.743,48.593,50.743z M48.593,10.37
					c-2.703,0-4.898,2.203-4.898,4.91v20.188c0,2.703,2.199,4.896,4.898,4.896c2.703,0,4.904-2.201,4.904-4.896V15.28
					C53.498,12.573,51.3,10.37,48.593,10.37z"/>
			</g>
		</g>
	</g>
	<g>
		<g>
			<g>
				<path fill="#94323E" d="M155.13,35.468c0,5.568-4.518,10.088-10.096,10.088l0,0c-5.568,0-10.094-4.52-10.094-10.088V15.276
					c0-5.582,4.518-10.098,10.094-10.098l0,0c5.578,0,10.096,4.512,10.096,10.098V35.468z"/>
			</g>
		</g>
		<g>
			<g>
				<path fill="#94323E" d="M145.035,50.743c-8.424,0-15.275-6.861-15.275-15.275V15.276c0-8.439,6.855-15.277,15.275-15.277
					c8.432,0,15.289,6.848,15.289,15.277v20.191C160.324,43.89,153.466,50.743,145.035,50.743z M145.035,10.37
					c-2.699,0-4.9,2.203-4.9,4.91v20.188c0,2.703,2.201,4.896,4.9,4.896c2.707,0,4.908-2.201,4.908-4.896V15.28
					C149.945,12.573,147.742,10.37,145.035,10.37z"/>
			</g>
		</g>
	</g>
	<g>
		<g>
			<g>
				<g>
					<path fill="#94323E" d="M81.382,60.968c-1.143,0-2.162-0.26-3.066-0.771c-0.906-0.521-1.668-1.238-2.291-2.145
						c-0.631-0.922-1.102-2.008-1.432-3.277c-0.324-1.264-0.49-2.643-0.49-4.121c0-1.512,0.168-2.889,0.51-4.129
						c0.338-1.244,0.826-2.318,1.457-3.203c0.639-0.895,1.408-1.586,2.301-2.084c0.908-0.506,1.926-0.746,3.045-0.746
						c0.971,0,1.896,0.213,2.77,0.623c0.873,0.42,1.633,1.039,2.291,1.887c0.648,0.842,1.174,1.9,1.555,3.178
						c0.381,1.275,0.578,2.781,0.578,4.504c0,1.256-0.098,2.365-0.291,3.363c-0.191,0.994-0.453,1.869-0.787,2.629
						c-0.33,0.768-0.734,1.41-1.186,1.949c-0.459,0.545-0.957,0.99-1.49,1.336c-0.545,0.34-1.104,0.602-1.693,0.756
						C82.574,60.874,81.982,60.968,81.382,60.968z M77.703,50.468c0,1.186,0.092,2.232,0.273,3.15
						c0.189,0.908,0.445,1.678,0.77,2.297c0.334,0.623,0.723,1.086,1.174,1.402c0.449,0.311,0.951,0.471,1.496,0.471
						c0.469,0,0.92-0.125,1.348-0.346c0.428-0.236,0.807-0.635,1.133-1.189c0.318-0.561,0.582-1.295,0.777-2.211
						c0.199-0.928,0.293-2.057,0.293-3.414c0-1.303-0.1-2.395-0.314-3.289c-0.223-0.889-0.492-1.619-0.818-2.158
						c-0.334-0.563-0.717-0.951-1.137-1.201c-0.422-0.244-0.842-0.359-1.25-0.359c-0.5,0-0.973,0.102-1.424,0.324
						c-0.447,0.232-0.85,0.607-1.188,1.127c-0.348,0.533-0.623,1.23-0.824,2.107C77.806,48.062,77.703,49.151,77.703,50.468z"/>
				</g>
			</g>
		</g>
		<g>
			<g>
				<g>
					<path fill="#94323E" d="M101.167,46.485c-0.094-0.027-0.154-0.076-0.184-0.137c-0.027-0.064-0.053-0.145-0.055-0.223
						c0-0.078-0.01-0.188-0.021-0.295c-0.008-0.117-0.039-0.227-0.09-0.352c-0.289-0.668-0.693-1.193-1.186-1.572
						c-0.496-0.377-1.127-0.574-1.902-0.574c-0.617,0-1.18,0.176-1.68,0.521c-0.498,0.348-0.928,0.846-1.283,1.479
						c-0.355,0.637-0.627,1.414-0.82,2.309c-0.193,0.908-0.287,1.898-0.287,3.006c0,1.063,0.1,2.041,0.311,2.939
						c0.209,0.9,0.498,1.674,0.873,2.328c0.375,0.662,0.828,1.18,1.354,1.553c0.527,0.369,1.104,0.559,1.734,0.559
						c0.748,0,1.41-0.238,1.975-0.697c0.568-0.467,1.078-1.09,1.535-1.895l2.645,1.723c-0.727,1.254-1.615,2.207-2.656,2.836
						c-1.041,0.639-2.184,0.963-3.408,0.963c-1.145,0-2.207-0.207-3.178-0.617c-0.973-0.4-1.814-1.035-2.529-1.873
						c-0.713-0.838-1.271-1.893-1.674-3.17c-0.404-1.268-0.6-2.766-0.6-4.502c0-1.254,0.105-2.398,0.324-3.4
						c0.225-1.018,0.518-1.9,0.896-2.656c0.385-0.766,0.822-1.412,1.332-1.945c0.506-0.547,1.043-0.971,1.619-1.318
						c0.57-0.352,1.168-0.596,1.77-0.746c0.613-0.158,1.203-0.236,1.787-0.236c0.725,0,1.426,0.102,2.096,0.314
						c0.67,0.225,1.285,0.523,1.85,0.904c0.559,0.389,1.059,0.863,1.506,1.41c0.436,0.547,0.803,1.145,1.088,1.793L101.167,46.485z"
						/>
				</g>
			</g>
		</g>
		<g>
			<g>
				<g>
					<path fill="#94323E" d="M105.337,40.999h14.291v3.02h-5.48v16.379h-3.555V44.019h-5.256V40.999L105.337,40.999z"/>
				</g>
			</g>
		</g>
	</g>
	<g>
		<g>
			<g>
				<g>
					<path fill="#94323E" d="M24.64,114.302c1.09-2.381,2.609-4.184,4.561-5.436c1.941-1.24,4.162-1.871,6.676-1.871
						c1.637,0,3.148,0.289,4.523,0.859c1.371,0.555,2.572,1.338,3.564,2.297c1,0.963,1.785,2.104,2.346,3.385
						c0.568,1.273,0.857,2.643,0.857,4.068c0,1.467-0.271,2.84-0.809,4.098c-0.537,1.273-1.238,2.457-2.1,3.584
						c-0.857,1.129-1.82,2.205-2.902,3.238c-1.076,1.031-2.145,2.088-3.223,3.154c-1.072,1.066-2.1,2.158-3.072,3.271
						c-0.963,1.117-1.783,2.301-2.443,3.6h12.482c0.205-0.012,0.383-0.084,0.535-0.188c0.152-0.096,0.299-0.205,0.459-0.326
						c0.146-0.104,0.305-0.205,0.475-0.299c0.166-0.068,0.387-0.117,0.648-0.117v6.307H24.806v-3.592
						c0.527-1.313,1.168-2.551,1.91-3.742c0.75-1.191,1.537-2.322,2.365-3.391c0.832-1.082,1.682-2.098,2.551-3.039
						c0.869-0.967,1.695-1.861,2.492-2.707c0.602-0.654,1.271-1.326,2.021-2.043c0.742-0.719,1.439-1.479,2.094-2.283
						c0.65-0.813,1.195-1.676,1.631-2.594c0.436-0.895,0.652-1.857,0.652-2.881c0-0.697-0.123-1.354-0.359-1.986
						c-0.229-0.643-0.564-1.189-0.988-1.652c-0.426-0.457-0.936-0.828-1.545-1.1c-0.605-0.266-1.26-0.416-1.98-0.416
						c-0.904,0-1.654,0.119-2.25,0.355c-0.592,0.234-1.078,0.533-1.459,0.902c-0.377,0.359-0.674,0.748-0.893,1.193
						c-0.211,0.445-0.398,0.881-0.545,1.303c-0.15,0.424-0.291,0.814-0.41,1.162c-0.131,0.352-0.281,0.611-0.471,0.783
						L24.64,114.302z"/>
				</g>
			</g>
		</g>
		<g>
			<g>
				<g>
					<path fill="#94323E" d="M76.027,111.13c-2.246,5.125-4.357,10.445-6.344,15.957c-1.977,5.51-3.842,11.129-5.602,16.848h-7.016
						c1.711-5.135,3.488-10.258,5.32-15.361c1.826-5.121,3.77-10.139,5.828-15.064H54.296v-5.691h21.73V111.13z"/>
				</g>
			</g>
		</g>
		<g>
			<g>
				<g>
					<path fill="#94323E" d="M116.761,114.302c1.098-2.381,2.611-4.184,4.555-5.436c1.941-1.24,4.168-1.871,6.674-1.871
						c1.641,0,3.152,0.289,4.531,0.859c1.377,0.555,2.566,1.338,3.566,2.297c0.998,0.963,1.781,2.104,2.346,3.385
						c0.561,1.273,0.85,2.643,0.85,4.068c0,1.467-0.268,2.84-0.807,4.098c-0.537,1.273-1.232,2.457-2.092,3.584
						c-0.861,1.129-1.83,2.205-2.902,3.238c-1.076,1.031-2.148,2.088-3.227,3.154c-1.072,1.066-2.098,2.158-3.072,3.271
						c-0.973,1.117-1.789,2.301-2.445,3.6h12.48c0.207-0.012,0.387-0.084,0.537-0.188c0.152-0.096,0.305-0.205,0.455-0.326
						c0.148-0.104,0.307-0.205,0.477-0.299c0.176-0.068,0.391-0.117,0.652-0.117v6.307h-22.412v-3.592
						c0.529-1.313,1.166-2.551,1.91-3.742c0.742-1.191,1.533-2.322,2.367-3.391c0.824-1.082,1.678-2.098,2.543-3.039
						c0.865-0.967,1.695-1.861,2.49-2.707c0.6-0.654,1.273-1.326,2.021-2.043c0.748-0.719,1.443-1.479,2.096-2.283
						c0.652-0.813,1.191-1.676,1.627-2.594c0.434-0.895,0.648-1.857,0.648-2.881c0-0.697-0.109-1.354-0.354-1.986
						c-0.236-0.643-0.564-1.189-0.988-1.652c-0.428-0.457-0.941-0.828-1.543-1.1c-0.605-0.266-1.264-0.416-1.979-0.416
						c-0.91,0-1.666,0.119-2.254,0.355c-0.596,0.234-1.078,0.533-1.463,0.902c-0.377,0.359-0.668,0.748-0.887,1.193
						s-0.398,0.881-0.553,1.303c-0.154,0.424-0.291,0.814-0.408,1.162c-0.119,0.352-0.281,0.611-0.465,0.783L116.761,114.302z"/>
				</g>
			</g>
		</g>
		<g>
			<g>
				<g>
					<path fill="#94323E" d="M167.975,116.286c0,0.797-0.139,1.574-0.402,2.359c-0.275,0.787-0.652,1.537-1.131,2.252
						c-0.479,0.725-1.047,1.396-1.688,2.02c-0.639,0.641-1.324,1.18-2.039,1.66c0.945,0.523,1.814,1.145,2.604,1.852
						c0.797,0.715,1.48,1.486,2.055,2.338c0.576,0.84,1.023,1.744,1.344,2.691c0.318,0.928,0.479,1.908,0.479,2.91
						c0,1.504-0.309,2.906-0.928,4.217c-0.625,1.297-1.482,2.428-2.576,3.379c-1.098,0.951-2.379,1.701-3.85,2.258
						c-1.47,0.545-3.054,0.809-4.753,0.809c-1.723,0-3.313-0.264-4.783-0.809c-1.475-0.553-2.746-1.307-3.82-2.236
						c-1.08-0.951-1.924-2.055-2.533-3.332c-0.613-1.277-0.922-2.656-0.922-4.121c0-0.965,0.158-1.9,0.479-2.83
						c0.324-0.932,0.783-1.814,1.381-2.656c0.588-0.854,1.289-1.646,2.105-2.373c0.816-0.742,1.717-1.383,2.715-1.922
						c-0.713-0.484-1.383-1.021-1.998-1.633c-0.607-0.623-1.137-1.26-1.578-1.967c-0.443-0.703-0.791-1.436-1.047-2.203
						c-0.252-0.756-0.377-1.531-0.377-2.316c0-1.324,0.275-2.588,0.844-3.775c0.566-1.186,1.334-2.217,2.305-3.094
						c0.967-0.891,2.109-1.574,3.404-2.096c1.307-0.512,2.688-0.775,4.164-0.775c1.506,0,2.902,0.238,4.185,0.734
						c1.285,0.508,2.402,1.184,3.34,2.037c0.943,0.865,1.684,1.861,2.217,3.006C167.708,113.821,167.975,115.022,167.975,116.286z
						 M162.344,134.312c0-0.701-0.141-1.373-0.426-2.037c-0.285-0.662-0.682-1.281-1.188-1.854c-0.512-0.57-1.131-1.102-1.857-1.572
						c-0.721-0.471-1.539-0.867-2.443-1.184c-0.66,0.34-1.262,0.738-1.811,1.197c-0.545,0.467-1.025,0.975-1.447,1.537
						c-0.412,0.547-0.732,1.143-0.961,1.781c-0.223,0.629-0.34,1.275-0.34,1.965c0,0.686,0.143,1.316,0.428,1.936
						c0.283,0.619,0.662,1.152,1.145,1.604c0.482,0.447,1.049,0.811,1.703,1.088c0.656,0.271,1.33,0.41,2.045,0.41
						c0.758,0,1.455-0.135,2.084-0.383c0.631-0.25,1.176-0.592,1.627-1.033c0.454-0.432,0.808-0.941,1.065-1.547
						C162.217,135.628,162.344,134.991,162.344,134.312z M153.257,116.341c0,0.596,0.135,1.164,0.385,1.713
						c0.254,0.531,0.598,1.035,1.035,1.49c0.438,0.469,0.932,0.891,1.514,1.277c0.57,0.391,1.182,0.754,1.826,1.092
						c0.979-0.67,1.791-1.469,2.443-2.432c0.647-0.961,0.974-1.977,0.974-3.031c0-0.52-0.109-0.996-0.326-1.484
						c-0.218-0.465-0.511-0.883-0.89-1.242c-0.373-0.359-0.814-0.637-1.332-0.844c-0.506-0.211-1.057-0.313-1.639-0.313
						c-0.59,0-1.117,0.098-1.615,0.295c-0.494,0.197-0.91,0.475-1.258,0.813c-0.344,0.355-0.621,0.752-0.818,1.209
						C153.355,115.354,153.257,115.833,153.257,116.341z"/>
				</g>
			</g>
		</g>
	</g>
	<g>
		<g>
			<g>
				<polygon fill="#94323E" points="102.445,178.981 92.062,178.954 92.339,76.901 102.718,76.937 				"/>
			</g>
		</g>
	</g>
</g>
</svg>
