<?xml version="1.0" encoding="UTF-8" standalone="no"?>
<svg width="42px" height="43px" viewBox="0 0 42 43" version="1.1" xmlns="http://www.w3.org/2000/svg" xmlns:xlink="http://www.w3.org/1999/xlink">
    <!-- Generator: sketchtool 41.2 (35397) - http://www.bohemiancoding.com/sketch -->
    <title>4269BECF-388A-4BFC-A5EF-7425B57D1F38</title>
    <desc>Created with sketchtool.</desc>
    <defs></defs>
    <g id="Page-1" stroke="none" stroke-width="1" fill="none" fill-rule="evenodd">
        <g id="Desktop-Assets" transform="translate(-639.000000, -1765.000000)">
            <g id="Group-23" transform="translate(639.000000, 1765.328125)">
                <path d="M41.4338346,21.1666074 C41.4338346,9.47711704 32.1586302,0 20.7169173,0 C9.27520442,0 0,9.47711704 0,21.1666074 C0,32.856679 9.27520442,42.3332149 20.7169173,42.3332149 C32.1586302,42.3332149 41.4338346,32.856679 41.4338346,21.1666074 Z" id="Stroke-77-Copy" fill="#94323E"></path>
                <path d="M13.362944,15.3571429 C12.767913,15.3571429 12.2718447,15.8644494 12.2718447,16.4729605 L12.2718447,25.9574163 C12.2718447,26.5659275 12.767913,27.073234 13.362944,27.073234 L28.6383346,27.073234 C29.2333656,27.073234 29.7294339,26.5659275 29.7294339,25.9574163 L29.7294339,16.4729605 C29.7294339,15.8644494 29.2333656,15.3571429 28.6383346,15.3571429 L13.362944,15.3571429 Z M14.2920696,16.4729605 L27.709209,16.4729605 L21.0006393,22.4268855 L14.2920696,16.4729605 Z M13.362944,17.1180426 L20.6426223,23.5863037 C20.8479187,23.7688694 21.1533599,23.7688694 21.3586563,23.5863037 L28.6383346,17.1180426 L28.6383346,25.9574163 L13.362944,25.9574163 L13.362944,17.1180426 Z" id="Shape" fill="#FFFFFF"></path>
            </g>
        </g>
    </g>
</svg>