<?xml version="1.0" encoding="utf-8"?>
<!-- Generator: Adobe Illustrator 16.0.0, SVG Export Plug-In . SVG Version: 6.00 Build 0)  -->
<!DOCTYPE svg PUBLIC "-//W3C//DTD SVG 1.1//EN" "http://www.w3.org/Graphics/SVG/1.1/DTD/svg11.dtd">
<svg version="1.1" id="Capa_1" xmlns="http://www.w3.org/2000/svg" xmlns:xlink="http://www.w3.org/1999/xlink" x="0px" y="0px"
	 width="298.026px" height="179.045px" viewBox="0 0 298.026 179.045" enable-background="new 0 0 298.026 179.045"
	 xml:space="preserve">
<g>
	<g>
		<path fill="#94323E" d="M282.95,144.645V126.77h-17.598v-17.871h-15.361V91.037h-17.033V73.166h-15.641V55.285H200.28V37.408
			h-24.293V10.369h4.355V0h-4.355h-53.945h-4.359v10.369h4.359v27.039H97.743v17.877H80.708v17.881H65.069v17.871H48.036v17.861
			H32.672v17.871H15.084v17.875H0v34.4h105.936h86.152h105.938v-34.4H282.95z M272.569,137.156v7.488h-84.502l-0.881-7.488h78.166
			H272.569z M254.971,119.273v7.496h-69.002l-0.873-7.496h64.898H254.971z M239.616,101.402v7.486h-55.732l-0.875-7.486h49.955
			H239.616z M222.579,83.531v7.498H181.79l-0.881-7.498h36.408H222.579z M206.936,65.658v7.498h-27.238l-0.877-7.498h21.459H206.936
			z M189.905,47.789v7.488h-12.297l-0.877-7.488H189.905z M165.61,10.355v26.207v0.832h-10.258c0.047-0.262,0.076-0.537,0.082-0.832
			c0.004-0.063,0.018-0.111,0.018-0.174V25.045c0-3.422-2.771-6.203-6.199-6.203c-3.422,0-6.195,2.781-6.195,6.203v11.344
			c0,0.063,0.014,0.111,0.014,0.174h-10.648V10.355H165.61z M108.131,47.789h13.166l-0.873,7.488h-12.303L108.131,47.789
			L108.131,47.789z M91.088,65.658h6.66h21.459l-0.873,7.498H91.088V65.658z M75.45,83.531h5.258h36.412l-0.879,7.498H75.45V83.531z
			 M58.407,101.402h6.662h49.953l-0.881,7.486H58.407V101.402L58.407,101.402z M43.056,119.273h4.979h64.896l-0.879,7.496H43.06
			L43.056,119.273L43.056,119.273z M25.459,137.156h7.213h78.164l-0.873,7.488H25.459V137.156z M10.381,168.662v-13.639h4.703h93.66
			l-1.586,13.639H10.381z M117.606,168.662l1.594-13.639l1.217-10.379l0.875-7.488l1.215-10.387l0.881-7.496l1.213-10.375
			l0.873-7.486l1.219-10.375l0.879-7.504l1.215-10.367l0.873-7.504l1.219-10.377l0.877-7.482h34.525l0.873,7.482l1.215,10.377
			l0.883,7.504l1.213,10.367l0.875,7.504l1.213,10.375l0.881,7.486l1.215,10.375l0.875,7.496l1.215,10.387l0.877,7.488l1.213,10.379
			l1.596,13.639H117.606z M287.647,168.662h-96.771l-1.594-13.639h93.668h4.697V168.662z"/>
	</g>
</g>
</svg>
